<?xml version="1.0" encoding="utf-8"?>
<!-- Generator: Adobe Illustrator 15.0.0, SVG Export Plug-In . SVG Version: 6.00 Build 0)  -->
<!DOCTYPE svg PUBLIC "-//W3C//DTD SVG 1.1//EN" "http://www.w3.org/Graphics/SVG/1.1/DTD/svg11.dtd">
<svg version="1.1" id="Calque_1" xmlns="http://www.w3.org/2000/svg" xmlns:xlink="http://www.w3.org/1999/xlink" x="0px" y="0px"
	 width="17.609px" height="17.581px" viewBox="0 0 17.609 17.581" enable-background="new 0 0 17.609 17.581" xml:space="preserve">
<g>
	<path fill="#999999" d="M17.609,16.163c0-0.383-0.149-0.742-0.42-1.013l-6.36-6.36l6.36-6.359c0.558-0.559,0.558-1.467,0-2.025
		c-0.541-0.54-1.484-0.54-2.025,0l-6.359,6.36l-6.359-6.36c-0.541-0.54-1.484-0.54-2.025,0c-0.558,0.558-0.558,1.467,0,2.025
		L6.78,8.79l-6.36,6.36C0.149,15.42,0,15.78,0,16.163s0.149,0.742,0.42,1.012c0.542,0.543,1.484,0.541,2.024,0l6.36-6.359
		l6.36,6.359c0.54,0.539,1.482,0.542,2.024,0C17.46,16.905,17.609,16.545,17.609,16.163z"/>
</g>
</svg>
