<?xml version="1.0" encoding="utf-8"?>
<!-- Generator: Adobe Illustrator 15.0.0, SVG Export Plug-In . SVG Version: 6.00 Build 0)  -->
<!DOCTYPE svg PUBLIC "-//W3C//DTD SVG 1.1//EN" "http://www.w3.org/Graphics/SVG/1.1/DTD/svg11.dtd">
<svg version="1.1" id="Calque_1" xmlns="http://www.w3.org/2000/svg" xmlns:xlink="http://www.w3.org/1999/xlink" x="0px" y="0px"
	 width="25.293px" height="18.304px" viewBox="175.801 74.799 25.293 18.304" enable-background="new 175.801 74.799 25.293 18.304"
	 xml:space="preserve">
<rect x="1072.574" y="-4953.242" fill="#F5F5F5" width="1319.479" height="147.015"/>
<path fill="none" d="M178.866,20.253c-0.071-0.031-0.27-0.08-0.812-0.08h-0.98v1.33h0.945c0.291,0,0.537-0.024,0.731-0.074
	c0.168-0.042,0.295-0.113,0.378-0.208c0.076-0.088,0.115-0.221,0.115-0.394c0-0.136-0.032-0.25-0.101-0.351
	C179.079,20.377,178.987,20.303,178.866,20.253z"/>
<rect x="245.635" y="34.367" fill="#F4F4F4" width="11.334" height="20.425"/>
<g>
	<polygon fill="none" points="195.487,91.353 190.513,84.001 188.434,84.913 186.486,83.991 181.106,91.353 	"/>
	<path fill="none" d="M188.461,82.99l10.866-4.769c-0.083-0.935-0.86-1.672-1.815-1.672h-18.129c-0.83,0-1.525,0.559-1.749,1.317
		L188.461,82.99z"/>
	<path fill="none" d="M184.875,83.229l-7.324-3.466v9.757c0,0.87,0.61,1.597,1.424,1.783L184.875,83.229z"/>
	<path fill="none" d="M192.141,83.285l5.453,8.06c0.971-0.044,1.75-0.843,1.75-1.825v-9.396L192.141,83.285z"/>
	<path fill="#B7B7B7" d="M197.512,74.799h-18.129c-1.976,0-3.582,1.606-3.582,3.582V89.52c0,1.976,1.606,3.583,3.582,3.583h18.129
		c1.976,0,3.582-1.607,3.582-3.583V78.381C201.094,76.406,199.488,74.799,197.512,74.799z M179.383,76.549h18.129
		c0.955,0,1.732,0.737,1.815,1.672l-10.866,4.769l-10.827-5.123C177.858,77.108,178.553,76.549,179.383,76.549z M188.434,84.913
		l2.079-0.912l4.974,7.352h-14.381l5.38-7.361L188.434,84.913z M177.551,89.52v-9.757l7.324,3.466l-5.9,8.074
		C178.161,91.116,177.551,90.39,177.551,89.52z M197.594,91.345l-5.453-8.06l7.203-3.162v9.396
		C199.344,90.502,198.565,91.301,197.594,91.345z"/>
</g>
</svg>
