<?xml version="1.0" encoding="utf-8"?>
<!-- Generator: Adobe Illustrator 15.0.0, SVG Export Plug-In . SVG Version: 6.00 Build 0)  -->
<!DOCTYPE svg PUBLIC "-//W3C//DTD SVG 1.1//EN" "http://www.w3.org/Graphics/SVG/1.1/DTD/svg11.dtd">
<svg version="1.1" id="Calque_1" xmlns="http://www.w3.org/2000/svg" xmlns:xlink="http://www.w3.org/1999/xlink" x="0px" y="0px"
	 width="21.842px" height="21.465px" viewBox="146.927 73.743 21.842 21.465" enable-background="new 146.927 73.743 21.842 21.465"
	 xml:space="preserve">
<rect x="1072.574" y="-4953.242" fill="#F5F5F5" width="1319.479" height="147.015"/>
<path fill="none" d="M178.866,20.253c-0.071-0.031-0.27-0.08-0.812-0.08h-0.98v1.33h0.945c0.291,0,0.537-0.024,0.731-0.074
	c0.168-0.042,0.295-0.113,0.378-0.208c0.076-0.088,0.115-0.221,0.115-0.394c0-0.136-0.032-0.25-0.101-0.351
	C179.079,20.377,178.987,20.303,178.866,20.253z"/>
<rect x="245.635" y="34.367" fill="#F4F4F4" width="11.334" height="20.425"/>
<g>
	<path fill="none" d="M161.124,88.018l4.961,5.27c0.1,0.105,0.233,0.166,0.378,0.171c0.159-0.003,0.279-0.047,0.387-0.147
		c0.105-0.099,0.165-0.233,0.17-0.379c0.004-0.145-0.048-0.281-0.146-0.386l-5.03-5.344
		C161.619,87.489,161.382,87.763,161.124,88.018z"/>
	<path fill="none" d="M155.269,88.677c3.635,0,6.592-2.957,6.592-6.591c0-3.636-2.957-6.593-6.592-6.593s-6.592,2.957-6.592,6.593
		C148.677,85.72,151.634,88.677,155.269,88.677z"/>
	<path fill="#B7B7B7" d="M168.148,91.346l-5.353-5.687c0.518-1.085,0.815-2.293,0.815-3.573c0-4.601-3.742-8.343-8.342-8.343
		s-8.342,3.742-8.342,8.343c0,4.6,3.742,8.341,8.342,8.341c1.649,0,3.184-0.487,4.479-1.316l5.062,5.376
		c0.419,0.446,0.987,0.702,1.593,0.721l0.078,0.001c0.585,0,1.143-0.222,1.568-0.623C168.969,93.718,169.013,92.266,168.148,91.346z
		 M166.873,92.546c0.099,0.104,0.15,0.241,0.146,0.386c-0.005,0.146-0.064,0.28-0.17,0.379c-0.107,0.101-0.228,0.145-0.387,0.147
		c-0.145-0.005-0.278-0.065-0.378-0.171l-4.961-5.27c0.258-0.255,0.495-0.529,0.719-0.815L166.873,92.546z M155.269,75.493
		c3.635,0,6.592,2.957,6.592,6.593c0,3.634-2.957,6.591-6.592,6.591s-6.592-2.957-6.592-6.591
		C148.677,78.45,151.634,75.493,155.269,75.493z"/>
</g>
</svg>
