<?xml version="1.0" encoding="utf-8"?>
<!-- Generator: Adobe Illustrator 15.0.0, SVG Export Plug-In . SVG Version: 6.00 Build 0)  -->
<!DOCTYPE svg PUBLIC "-//W3C//DTD SVG 1.1//EN" "http://www.w3.org/Graphics/SVG/1.1/DTD/svg11.dtd">
<svg version="1.1" id="Calque_1" xmlns="http://www.w3.org/2000/svg" xmlns:xlink="http://www.w3.org/1999/xlink" x="0px" y="0px"
	 width="23.838px" height="15.219px" viewBox="0 0 23.838 15.219" enable-background="new 0 0 23.838 15.219" xml:space="preserve">
<g>
	<g>
		<path fill="#A1A1A1" d="M23.618,6.591C23.477,6.322,20.084,0,11.919,0C3.752,0,0.361,6.322,0.22,6.592L0,7.013l0.22,0.42
			c0.104,0.201,2.01,3.743,6.335,5.55c-0.662,0.101-1.317,0.217-1.966,0.355c-0.491,0.104-0.806,0.589-0.701,1.081
			c0.104,0.49,0.587,0.798,1.08,0.703c4.624-0.986,9.604-0.956,14.494,0.078c0.064,0.013,0.129,0.019,0.19,0.019
			c0.422,0,0.8-0.293,0.891-0.722c0.104-0.492-0.211-0.975-0.703-1.079c-0.845-0.181-1.692-0.319-2.543-0.441
			c4.314-1.807,6.217-5.342,6.321-5.542l0.22-0.422L23.618,6.591z M2.087,7.013c0.717-1.108,2.977-4.027,7.237-4.92
			c-1.764,0.932-2.969,2.784-2.969,4.92c0,2.136,1.205,3.988,2.97,4.921C5.062,11.039,2.803,8.119,2.087,7.013z M14.529,11.927
			c1.757-0.935,2.953-2.785,2.953-4.914c0-0.113-0.011-0.223-0.018-0.333c-0.364,0.973-1.3,1.674-2.402,1.674
			c-1.418,0-2.569-1.153-2.569-2.569c0-1.42,1.152-2.572,2.569-2.572c0.427,0,0.822,0.113,1.175,0.296
			c-0.472-0.58-1.058-1.063-1.725-1.416c4.256,0.893,6.516,3.808,7.233,4.917C21.03,8.103,18.751,11.021,14.529,11.927z"/>
	</g>
</g>
</svg>
