<?xml version="1.0" encoding="utf-8"?>
<!-- Generator: Adobe Illustrator 15.0.0, SVG Export Plug-In . SVG Version: 6.00 Build 0)  -->
<!DOCTYPE svg PUBLIC "-//W3C//DTD SVG 1.1//EN" "http://www.w3.org/Graphics/SVG/1.1/DTD/svg11.dtd">
<svg version="1.1" id="Calque_1" xmlns="http://www.w3.org/2000/svg" xmlns:xlink="http://www.w3.org/1999/xlink" x="0px" y="0px"
	 width="27.826px" height="27.826px" viewBox="-877.698 2442.288 27.826 27.826"
	 enable-background="new -877.698 2442.288 27.826 27.826" xml:space="preserve">
<rect x="1072.574" y="-4953.242" fill="#F5F5F5" width="1319.479" height="147.015"/>
<rect x="-50.296" y="-2251.633" fill="#F5F5F5" width="1319.478" height="147.015"/>
<g>
	<path fill="#282828" d="M-851.451,2462.43c0,3.313-2.687,6-6,6h-12.667c-3.312,0-6-2.687-6-6v-12.833c0-3.313,2.688-6,6-6h12.667
		c3.313,0,6,2.687,6,6V2462.43z"/>
</g>
<polygon fill="#FFFFFF" points="-863.785,2448.786 -861.63,2453.153 -856.812,2453.853 -860.299,2457.251 -859.475,2462.05 
	-863.785,2459.784 -868.094,2462.05 -867.271,2457.251 -870.758,2453.853 -865.94,2453.153 "/>
</svg>
