<?xml version="1.0" encoding="utf-8"?>
<!-- Generator: Adobe Illustrator 15.0.0, SVG Export Plug-In . SVG Version: 6.00 Build 0)  -->
<!DOCTYPE svg PUBLIC "-//W3C//DTD SVG 1.1//EN" "http://www.w3.org/Graphics/SVG/1.1/DTD/svg11.dtd">
<svg version="1.1" id="Calque_1" xmlns="http://www.w3.org/2000/svg" xmlns:xlink="http://www.w3.org/1999/xlink" x="0px" y="0px"
	 width="27.826px" height="27.826px" viewBox="-877.698 2442.288 27.826 27.826"
	 enable-background="new -877.698 2442.288 27.826 27.826" xml:space="preserve">
<rect x="1072.574" y="-4953.242" fill="#F5F5F5" width="1319.479" height="147.015"/>
<rect x="-50.296" y="-2251.633" fill="#F5F5F5" width="1319.478" height="147.015"/>
<g>
	<circle fill="#66CC7A" cx="-863.785" cy="2456.201" r="13.913"/>
</g>
<g>
	<path fill="#FFFFFF" d="M-855.444,2452.762c-0.542-0.416-1.187-0.657-2.87-0.657h-2.888v9.769h1.688v-3.474h1.419
		c1.511,0,2.126-0.271,2.731-0.767c0.591-0.479,1.003-1.474,1.003-2.422C-854.36,2454.231-854.764,2453.316-855.444,2452.762z
		 M-856.73,2456.678c-0.461,0.246-0.97,0.279-1.405,0.279h-1.378v-3.412h1.296c0.486,0,1.001,0.034,1.463,0.28
		c0.5,0.241,0.79,0.757,0.79,1.412C-855.965,2455.883-856.258,2456.434-856.73,2456.678z"/>
</g>
<g>
	<polygon fill="none" points="-869.251,2461.976 -865.594,2461.976 -867.4,2455.244 	"/>
	<polygon fill="none" points="-863.46,2451.976 -866.721,2451.976 -865.038,2458.258 	"/>
	<polygon fill="none" points="-868.055,2451.976 -871.411,2451.976 -869.799,2458.314 	"/>
	<polygon fill="#FFFFFF" points="-867.4,2455.244 -865.594,2461.976 -864.425,2461.976 -861.913,2451.976 -863.46,2451.976 
		-865.038,2458.258 -866.721,2451.976 -868.055,2451.976 -869.799,2458.314 -871.411,2451.976 -872.959,2451.976 -870.415,2461.976 
		-869.251,2461.976 	"/>
</g>
</svg>
