<?xml version="1.0" encoding="utf-8"?>
<!-- Generator: Adobe Illustrator 15.0.0, SVG Export Plug-In . SVG Version: 6.00 Build 0)  -->
<!DOCTYPE svg PUBLIC "-//W3C//DTD SVG 1.1//EN" "http://www.w3.org/Graphics/SVG/1.1/DTD/svg11.dtd">
<svg version="1.1" id="Calque_1" xmlns="http://www.w3.org/2000/svg" xmlns:xlink="http://www.w3.org/1999/xlink" x="0px" y="0px"
	 width="20.583px" height="20.582px" viewBox="0 0 20.583 20.582" enable-background="new 0 0 20.583 20.582" xml:space="preserve">
<g>
	<path fill="#A1A1A1" d="M20.583,15.703c0,2.695-2.185,4.879-4.88,4.879H4.88c-2.695,0-4.88-2.184-4.88-4.879V4.881
		C0,2.185,2.185,0,4.88,0h10.823c2.695,0,4.88,2.185,4.88,4.881V15.703z"/>
	<g>
		<path fill="#FFFFFF" d="M9.177,5.931C8.594,5.484,7.902,5.221,6.109,5.221H3v10.438h1.893v-3.673h1.446
			c1.612,0,2.273-0.289,2.925-0.824c0.645-0.523,1.077-1.568,1.077-2.602C10.342,7.508,9.905,6.523,9.177,5.931z M7.758,10.065
			c-0.478,0.255-1.009,0.289-1.461,0.289H4.895V6.855h1.314c0.508,0,1.044,0.035,1.522,0.291c0.511,0.246,0.806,0.772,0.806,1.446
			C8.538,9.25,8.237,9.814,7.758,10.065z"/>
		<path fill="#FFFFFF" d="M15.731,9.779l-0.23-0.093C13.83,8.99,13.266,8.757,13.28,7.91c0-0.763,0.624-1.344,1.447-1.344
			c1.114,0,1.349,0.848,1.439,1.316h1.878C17.9,5.773,16.22,5.02,14.801,5.02c-1.654,0-3.413,1.064-3.413,3.034
			c0,1.933,1.812,2.579,2.589,2.854l0.315,0.125c1.308,0.516,2.026,0.8,2.026,1.733c0,0.852-0.715,1.546-1.591,1.546
			c-0.151,0-1.479-0.05-1.627-1.718h-1.884c0.017,0.952,0.323,1.753,0.884,2.319c0.614,0.621,1.531,0.945,2.654,0.945
			c2.537,0,3.441-1.65,3.441-3.193C18.197,11.153,17.253,10.44,15.731,9.779z"/>
	</g>
</g>
</svg>
