<?xml version="1.0" encoding="utf-8"?>
<!-- Generator: Adobe Illustrator 15.0.0, SVG Export Plug-In . SVG Version: 6.00 Build 0)  -->
<!DOCTYPE svg PUBLIC "-//W3C//DTD SVG 1.1//EN" "http://www.w3.org/Graphics/SVG/1.1/DTD/svg11.dtd">
<svg version="1.1" id="Calque_1" xmlns="http://www.w3.org/2000/svg" xmlns:xlink="http://www.w3.org/1999/xlink" x="0px" y="0px"
	 width="27.826px" height="27.826px" viewBox="-877.698 2442.288 27.826 27.826"
	 enable-background="new -877.698 2442.288 27.826 27.826" xml:space="preserve">
<rect x="1072.574" y="-4953.242" fill="#F5F5F5" width="1319.479" height="147.015"/>
<rect x="-50.296" y="-2251.633" fill="#F5F5F5" width="1319.478" height="147.015"/>
<g>
	<path fill="#B88DFF" d="M-868.536,2468.785c-1.382,0-3.08-0.979-3.771-2.178l-4.75-8.229c-0.693-1.197-0.693-3.157,0-4.355
		l4.75-8.229c0.691-1.196,2.39-2.178,3.771-2.178h9.502c1.382,0,3.08,0.98,3.771,2.178l4.75,8.229c0.692,1.198,0.692,3.158,0,4.355
		l-4.75,8.229c-0.691,1.198-2.39,2.178-3.771,2.178H-868.536z"/>
	<g>
		<path fill="#FFFFFF" d="M-861.633,2460.893h1.008l-0.96-2.753h-4.666l-0.937,2.753h1.249v1.377h-3.938v-1.377h1.056l3.778-10.756
			h2.36l3.771,10.756h1.216v1.377h-3.938L-861.633,2460.893L-861.633,2460.893z M-865.794,2456.811h3.745l-1.889-5.426
			L-865.794,2456.811z"/>
	</g>
</g>
</svg>
