<?xml version="1.0" encoding="utf-8"?>
<!-- Generator: Adobe Illustrator 15.0.0, SVG Export Plug-In . SVG Version: 6.00 Build 0)  -->
<!DOCTYPE svg PUBLIC "-//W3C//DTD SVG 1.1//EN" "http://www.w3.org/Graphics/SVG/1.1/DTD/svg11.dtd">
<svg version="1.1" id="Calque_1" xmlns="http://www.w3.org/2000/svg" xmlns:xlink="http://www.w3.org/1999/xlink" x="0px" y="0px"
	 width="23.649px" height="23.649px" viewBox="0 0 23.649 23.649" enable-background="new 0 0 23.649 23.649" xml:space="preserve">
<g>
	<path fill="#A1A1A1" d="M11.825,0C5.295,0,0,5.294,0,11.825c0,6.53,5.295,11.824,11.825,11.824s11.824-5.294,11.824-11.824
		C23.649,5.294,18.355,0,11.825,0z M7.181,5.314h9.286c0.428,0,0.774,0.36,0.774,0.807c0,0.446-0.347,0.807-0.774,0.807H7.181
		c-0.427,0-0.773-0.361-0.773-0.807C6.407,5.676,6.754,5.314,7.181,5.314z M7.181,8.166h9.286c0.428,0,0.774,0.362,0.774,0.807
		c0,0.446-0.347,0.807-0.774,0.807H7.181c-0.427,0-0.773-0.361-0.773-0.807C6.407,8.528,6.754,8.166,7.181,8.166z M7.181,11.019
		h9.286c0.428,0,0.774,0.362,0.774,0.807c0,0.446-0.347,0.807-0.774,0.807H7.181c-0.427,0-0.773-0.361-0.773-0.807
		C6.407,11.38,6.754,11.019,7.181,11.019z M16.467,18.337H7.181c-0.427,0-0.773-0.361-0.773-0.807s0.347-0.807,0.773-0.807h9.286
		c0.428,0,0.774,0.36,0.774,0.807C17.241,17.976,16.895,18.337,16.467,18.337z M16.468,15.484H7.182
		c-0.427,0-0.773-0.362-0.773-0.807c0-0.446,0.347-0.807,0.773-0.807h9.286c0.428,0,0.774,0.361,0.774,0.807
		C17.242,15.123,16.896,15.484,16.468,15.484z"/>
</g>
</svg>
