<?xml version="1.0" encoding="utf-8"?>
<!-- Generator: Adobe Illustrator 15.0.0, SVG Export Plug-In . SVG Version: 6.00 Build 0)  -->
<!DOCTYPE svg PUBLIC "-//W3C//DTD SVG 1.1//EN" "http://www.w3.org/Graphics/SVG/1.1/DTD/svg11.dtd">
<svg version="1.1" id="Calque_1" xmlns="http://www.w3.org/2000/svg" xmlns:xlink="http://www.w3.org/1999/xlink" x="0px" y="0px"
	 width="27.826px" height="27.826px" viewBox="-877.698 2442.288 27.826 27.826"
	 enable-background="new -877.698 2442.288 27.826 27.826" xml:space="preserve">
<rect x="1072.574" y="-4953.242" fill="#F5F5F5" width="1319.479" height="147.015"/>
<rect x="-50.296" y="-2251.633" fill="#F5F5F5" width="1319.478" height="147.015"/>
<g>
	<path fill="#2B9ED8" d="M-851.451,2462.43c0,3.313-2.687,6-6,6h-12.667c-3.312,0-6-2.687-6-6v-12.833c0-3.313,2.688-6,6-6h12.667
		c3.313,0,6,2.687,6,6V2462.43z"/>
</g>
<g>
	<path fill="#FFFFFF" d="M-865.148,2451.692c-0.559-0.429-1.221-0.679-2.94-0.679h-2.979v10.003h1.814v-3.519h1.386
		c1.546,0,2.178-0.277,2.803-0.789c0.619-0.502,1.034-1.504,1.034-2.495C-864.03,2453.204-864.448,2452.261-865.148,2451.692z
		 M-866.507,2455.654c-0.458,0.245-0.966,0.278-1.401,0.278h-1.344v-3.354h1.261c0.486,0,1,0.034,1.458,0.278
		c0.489,0.236,0.772,0.742,0.772,1.385C-865.76,2454.874-866.047,2455.415-866.507,2455.654z"/>
	<path fill="#FFFFFF" d="M-858.865,2455.381l-0.22-0.091c-1.603-0.666-2.143-0.89-2.128-1.702c0-0.732,0.596-1.287,1.386-1.287
		c1.068,0,1.294,0.813,1.379,1.261h1.801c-0.139-2.021-1.749-2.743-3.11-2.743c-1.585,0-3.27,1.021-3.27,2.909
		c0,1.852,1.737,2.471,2.479,2.736l0.303,0.119c1.253,0.494,1.942,0.767,1.942,1.661c0,0.817-0.684,1.482-1.524,1.482
		c-0.147,0-1.418-0.047-1.559-1.647h-1.807c0.018,0.914,0.31,1.682,0.848,2.224c0.589,0.593,1.469,0.905,2.545,0.905
		c2.432,0,3.298-1.581,3.298-3.062C-856.502,2456.697-857.406,2456.013-858.865,2455.381z"/>
</g>
</svg>
