<?xml version="1.0" encoding="utf-8"?>
<!-- Generator: Adobe Illustrator 15.0.0, SVG Export Plug-In . SVG Version: 6.00 Build 0)  -->
<!DOCTYPE svg PUBLIC "-//W3C//DTD SVG 1.1//EN" "http://www.w3.org/Graphics/SVG/1.1/DTD/svg11.dtd">
<svg version="1.1" id="Calque_1" xmlns="http://www.w3.org/2000/svg" xmlns:xlink="http://www.w3.org/1999/xlink" x="0px" y="0px"
	 width="19.904px" height="22.974px" viewBox="0 0 19.904 22.974" enable-background="new 0 0 19.904 22.974" xml:space="preserve">
<g>
	<path fill="none" d="M10.58,1.693H9.322c-0.661,0-1.2,0.538-1.2,1.2v3.051c0.484-0.462,1.137-0.751,1.857-0.751
		c0.694,0,1.322,0.271,1.801,0.704V2.894C11.78,2.231,11.241,1.693,10.58,1.693z"/>
	<polygon fill="#A1A1A1" points="0,22.974 19.904,22.974 19.222,21.095 0.683,21.095 	"/>
	<path fill="#A1A1A1" d="M14.824,9.004h-2.149v1.328c0,1.485-1.208,2.693-2.695,2.693c-1.484,0-2.694-1.208-2.694-2.693V9.004H5.08
		L1.042,20.108h17.82L14.824,9.004z"/>
	<path fill="#A1A1A1" d="M8.122,5.944V2.894c0-0.662,0.539-1.2,1.2-1.2h1.258c0.661,0,1.2,0.538,1.2,1.2v3.003
		c0.546,0.493,0.895,1.199,0.895,1.99v0.767c0.492-0.52,0.799-1.215,0.799-1.985V2.894C13.474,1.298,12.176,0,10.58,0H9.322
		C7.727,0,6.429,1.298,6.429,2.894v3.775c0,0.801,0.328,1.527,0.856,2.052V7.887C7.285,7.123,7.609,6.436,8.122,5.944z"/>
	<path fill="#A1A1A1" d="M8.556,7.887v2.444c0,0.786,0.637,1.424,1.424,1.424s1.426-0.638,1.426-1.424V7.887
		c0-0.787-0.639-1.424-1.426-1.424S8.556,7.101,8.556,7.887z"/>
</g>
</svg>
