<?xml version="1.0" encoding="utf-8"?>
<!-- Generator: Adobe Illustrator 15.0.0, SVG Export Plug-In . SVG Version: 6.00 Build 0)  -->
<!DOCTYPE svg PUBLIC "-//W3C//DTD SVG 1.1//EN" "http://www.w3.org/Graphics/SVG/1.1/DTD/svg11.dtd">
<svg version="1.1" id="Calque_1" xmlns="http://www.w3.org/2000/svg" xmlns:xlink="http://www.w3.org/1999/xlink" x="0px" y="0px"
	 width="89.565px" height="35.772px" viewBox="35.392 21.503 89.565 35.772" enable-background="new 35.392 21.503 89.565 35.772"
	 xml:space="preserve">
<rect x="1072.574" y="-4953.242" fill="#F5F5F5" width="1319.479" height="147.015"/>
<path fill="none" d="M178.866,20.253c-0.071-0.031-0.27-0.08-0.812-0.08h-0.98v1.33h0.945c0.291,0,0.537-0.024,0.731-0.074
	c0.168-0.042,0.295-0.113,0.378-0.208c0.076-0.088,0.115-0.221,0.115-0.394c0-0.136-0.032-0.25-0.101-0.351
	C179.079,20.377,178.987,20.303,178.866,20.253z"/>
<g>
	<path fill="none" d="M114.417,52.844c0.261-0.751,0.637-2.095,1.148-4.106c-1.288,1.025-2.279,2.006-3.03,2.992
		c-0.727,0.953-0.945,1.913-0.587,2.563c0.172,0.312,0.458,0.499,0.767,0.499l0.046-0.002
		C113.264,54.748,113.946,54.215,114.417,52.844z"/>
	<path fill="#FFFFFF" d="M124.093,38.628c-0.09-0.022-0.181-0.033-0.271-0.033c-0.521,0-0.974,0.354-1.1,0.863
		c-0.222,0.901-1.082,1.869-2.79,3.138l-0.381,0.282l0.105-0.463c0.554-2.373,1.008-4.374,1.229-5.355
		c0.098-0.382,0.185-0.77,0.259-1.156c0.113-0.605-0.284-1.196-0.886-1.319c-0.076-0.016-0.153-0.023-0.231-0.023
		c-0.533,0-0.985,0.364-1.102,0.887c-0.007,0.02-0.014,0.057-0.027,0.116l-0.19,0.855c-0.276,1.086-1.787,6.504-4.463,6.895
		c-0.035,0.007-0.066,0.007-0.086,0.007h-0.042l-0.059-0.028c-0.626-0.578-0.599-3.323-0.267-5.622
		c0.085-0.552,0.264-1.035,0.306-1.136c0.241-0.575,0.058-1.204-0.524-1.431c-0.16-0.061-0.341-0.083-0.527-0.063
		c-0.858,0.001-1.449,1.985-1.449,1.985c-1.993,4.891-2.939,6.213-3.361,6.521c0,0-0.717,0.524-1.141-2.143
		c-0.074-0.609-0.133-1.206-0.173-1.778l-0.002-0.088l0.062-0.056c0.487-0.41,0.979-0.884,1.461-1.41
		c3.908-4.271,6.048-12.68,5.074-15.139c-0.381-0.962-1.126-1.119-1.429-1.141c-1.097-0.079-2.21,0.833-2.936,1.594
		c-1.129,1.183-4.793,5.759-4.56,14.958l0.004,0.1l-0.086,0.053c-0.9,0.57-1.799,0.876-2.669,0.908
		c-0.046,0.002-0.091,0.002-0.135,0.002c-1.11,0-1.915-0.452-2.297-0.723l-0.141-0.1l0.097-0.143
		c0.284-0.406,0.581-0.843,0.909-1.336c2.73-4.113,5.955-11.208,4.579-14.105c-0.353-0.743-0.984-1.195-1.781-1.274
		c-0.975-0.09-1.91,0.243-2.737,0.991c-1.497,1.352-2.759,4.243-3.75,8.591l-0.028,0.137l-2.295-0.017l0.096-0.24
		c0.159-0.388,0.345-0.847,0.525-1.324l0.014-0.032c0.533-1.576,2.039-6.768-0.715-7.975c-0.205-0.09-0.427-0.136-0.658-0.136
		c-0.562,0-1.132,0.276-1.696,0.82c-1.499,1.45-3.171,4.947-4.161,8.703l-0.04,0.131l-2.618-0.021c-0.624,0-1.136,0.504-1.141,1.124
		c-0.002,0.303,0.114,0.587,0.327,0.804c0.212,0.216,0.496,0.336,0.798,0.338l2.143,0.016l-0.033,0.203
		c-0.354,2.067-0.458,4.017-0.309,5.799l0.007,0.077l-0.034,0.036c-1.032,1.165-2.091,2.088-3.165,2.76l-0.325,0.201l0.061-0.378
		c0.125-0.829,0.054-1.719-0.213-2.646c-0.383-1.331-0.598-2.409-0.641-3.202l-0.001-0.037l0.02-0.053
		c0.43-0.604,0.706-1.045,0.832-1.256c0.183-0.306,0.212-0.686,0.077-1.016c-0.138-0.33-0.425-0.579-0.771-0.667
		c-0.118-0.03-0.251-0.045-0.385-0.045c-0.291,0-0.85,0.073-1.327,0.566c-0.375,0.389-0.597,0.913-0.679,1.605l-0.021,0.067
		c-1.165,1.508-3.42,4.02-5.567,4.116c-0.74,0.03-1.032-0.207-1.21-0.413c-0.777-0.897-0.573-3.069-0.44-3.76
		c0.085-0.427-0.083-0.869-0.43-1.126c-0.332-0.25-0.834-0.292-1.203-0.103c-0.902,0.469-1.777,1.274-2.6,2.393l-0.455,0.617
		l0.141-0.755c0.059-0.302,0.114-0.627,0.173-1.021c0.094-0.61-0.325-1.188-0.933-1.291c-0.062-0.01-0.126-0.016-0.19-0.016
		c-0.546,0-1.013,0.392-1.11,0.933c-0.059,0.319-0.139,0.769-0.228,1.301c-0.829,4.159-2.314,6.491-3.418,6.96
		c-0.333,0.143-0.563,0.103-0.861-0.112c-0.635-0.45-0.841-2.133-0.567-4.617c0.207-1.66,0.485-2.632,0.518-2.959
		c0.057-0.589-0.355-1.128-0.939-1.229c-0.063-0.01-0.126-0.016-0.192-0.016c-0.522,0-0.974,0.356-1.098,0.864
		c-0.135,0.546-0.231,1.734-0.542,2.956c-0.485,1.876-1.588,5.027-3.562,5.209c-0.057,0.006-0.107,0.008-0.151,0.008
		c-0.31,0-0.404-0.116-0.449-0.173c-0.76-0.964-0.177-4.604,0.794-7.428c0.193-0.559-0.082-1.179-0.626-1.41
		c-0.142-0.06-0.292-0.091-0.445-0.091c-0.426,0-0.812,0.235-1.007,0.615c-0.087,0.167-0.867,1.651-1.984,3.309l-0.188,0.281
		l-0.12-0.318c-0.057-0.153-0.119-0.3-0.188-0.445c-0.909-1.922-2.211-2.623-3.144-2.871c-0.146-0.039-0.303-0.073-0.479-0.102
		l-0.301-0.043l0.193-0.238c1.182-1.46,6.218-9.287,4.848-12.159c-0.322-0.676-1.004-1.019-2.028-1.019
		c-1.741,0-9.226,5.622-10.12,17.48l-0.003,0.043L40.08,39.08c-2.349,2.109-4.111,3.314-4.185,3.365
		c-0.519,0.35-0.659,1.054-0.312,1.573c0.211,0.313,0.564,0.502,0.943,0.502c0.224,0,0.442-0.066,0.629-0.191
		c0.273-0.185,1.273-0.878,2.694-2.044l0.217-0.181l0.063,0.275c0.328,1.394,1.238,2.457,2.564,2.995
		c0.657,0.266,1.395,0.4,2.194,0.4c1.757-0.001,3.587-0.666,4.898-1.779c0.713-0.566,1.458-1.326,2.221-2.258l0.303-0.376
		l0.007,0.483c0.02,1.307,0.292,2.305,0.811,2.968c0.602,0.766,1.517,1.119,2.598,1.03c1.326-0.123,2.488-0.829,3.452-2.098
		l0.183-0.241l0.117,0.277c0.27,0.626,0.644,1.112,1.111,1.446c0.934,0.659,2.02,0.786,3.057,0.347
		c0.486-0.206,0.958-0.536,1.403-0.981l0.244-0.241l0.06,0.37c0.005,0.029,0.01,0.059,0.016,0.085
		c0.108,0.521,0.552,0.889,1.079,0.901c0.54,0,0.993-0.346,1.125-0.841c0.401-1.514,1.487-4.488,2.835-6.478l0.248-0.363l0.07,0.434
		c0.162,0.981,0.502,1.779,1.01,2.372c0.501,0.581,1.434,1.281,3.033,1.2c0.163-0.007,0.323-0.021,0.477-0.045l0.557-0.076
		l-0.414,0.379c-0.401,0.369-0.481,0.974-0.19,1.437c0.914,1.457,2.387,2.326,3.943,2.326c0.149,0,0.317-0.011,0.514-0.034
		c0.113,0.004,0.214,0.008,0.333,0.008c1.052,0,3.85-0.326,7.101-3.351l0.204-0.189l0.081,0.268
		c0.108,0.349,0.224,0.681,0.347,0.986c0.688,1.728,1.806,2.19,2.623,2.274c1.208,0.121,2.634-0.531,4.239-1.938l0.311-0.275
		l-0.021,0.415c-0.021,0.446-0.034,0.834-0.035,1.092c-0.007,2.423,0.323,5.646,1.932,7.243c0.643,0.639,1.453,0.976,2.344,0.976
		h0.035c0.475-0.004,1.367-0.176,1.996-1.282c1.093-1.925,0.908-6.396-0.429-10.399l-0.089-0.265l0.276,0.035
		c0.319,0.043,0.631,0.058,0.946,0.05c0.9-0.021,1.809-0.231,2.698-0.625l0.219-0.098l0.025,0.238
		c0.019,0.171,0.038,0.342,0.059,0.515l0.011,0.07c0.411,2.518,1.355,3.927,2.729,4.07c0.075,0.008,0.154,0.01,0.229,0.01
		c1.141,0,2.224-0.896,3.408-2.817l0.217-0.359l0.101,0.408c0.187,0.759,0.474,1.349,0.855,1.752
		c0.469,0.492,1.078,0.754,1.765,0.754c0.138,0,0.275-0.011,0.409-0.031c0.263-0.039,0.517-0.099,0.755-0.179l1.084-0.357
		l-0.926,0.666c-1.516,1.09-3.445,2.591-4.928,4.538c-1.338,1.763-1.632,3.732-0.784,5.27c0.606,1.101,1.737,1.784,2.951,1.784
		c0.09,0,0.184-0.004,0.278-0.011c0.78-0.066,2.715-0.555,3.769-3.613c0.412-1.2,1.078-3.696,1.979-7.42l0.01-0.041l0.04-0.048
		l0.142-0.096c2.894-1.96,5.394-3.652,5.984-6.052C125.073,39.391,124.7,38.777,124.093,38.628z M43.057,35.714
		c0.996-5.153,4.737-9.977,5.609-10.894c0.43-0.454,0.704-0.516,0.825-0.302c0.289,0.507-0.734,3.013-1.051,3.548
		c-0.377,0.639-0.735,1.286-1.082,1.91c-1.138,2.051-2.21,3.988-4.007,5.903l-0.485,0.518L43.057,35.714z M48.643,41.968
		c-0.873,0.924-2.387,1.545-3.767,1.545c-0.496,0-0.945-0.079-1.333-0.235c-0.88-0.357-1.301-1.076-1.287-2.199
		c0.003-0.286,0.014-0.576,0.031-0.859l0.003-0.045l0.035-0.056c0.788-0.732,1.542-1.476,2.257-2.223l0.023-0.02
		c0.364-0.217,1.28-0.697,2.209-0.697c0.218,0,0.422,0.026,0.605,0.077c0.692,0.184,1.243,0.724,1.682,1.648
		C49.648,40.057,49.498,41.059,48.643,41.968z M79.96,43.612c-0.252,0.111-0.533,0.171-0.814,0.171
		c-0.465,0-1.348-0.163-2.035-1.257c-0.154-0.247-0.394-0.422-0.675-0.494l-0.548-0.142l0.531-0.192
		c1.276-0.458,2.589-1.364,3.906-2.692l0.22-0.228l0.074,0.309c0.091,0.383,0.202,0.798,0.328,1.233
		C81.397,41.876,81.018,43.137,79.96,43.612z M90.047,31.14c0.936-3.237,2.86-6.382,3.139-6.75c0.279-0.369,0.306,0.089,0.306,0.089
		c0.12,0.844-0.09,2.694-0.728,4.595c-0.288,0.751-0.594,1.501-0.912,2.231l-0.046,0.106l-1.823-0.015L90.047,31.14z M89.096,35.973
		c0.068-0.697,0.173-1.426,0.313-2.171l0.03-0.144l1.309,0.01l-0.13,0.253c-0.384,0.751-0.787,1.478-1.197,2.159l-0.397,0.663
		L89.096,35.973z M96.056,33.912c-0.343,1.898-0.634,3.989-0.865,6.216l-0.003,0.033l-0.023,0.046
		c-2.235,2.63-3.792,3.561-4.509,3.561c-0.029,0-0.059-0.001-0.084-0.004c-0.286-0.028-0.532-0.31-0.751-0.859
		c-0.287-0.72-0.502-1.529-0.641-2.408l-0.01-0.076l0.046-0.06c1.427-1.796,2.77-4.007,3.993-6.573l0.049-0.101l2.833,0.021
		L96.056,33.912z M98.044,35.767c0.679-4.227,1.892-9.63,3.811-11.369c0.291-0.263,0.562-0.399,0.831-0.418
		c0,0,2.438-0.064-4.297,11.874c-0.017,0.028-0.025,0.037-0.034,0.048l-0.432,0.634L98.044,35.767z M99.139,51.193
		c0,0-0.2,0.348-0.777-0.244c-0.773-0.792-1.27-2.937-1.263-5.628c0.003-0.974,0.096-2.485,0.256-4.146l0.003-0.03l0.019-0.044
		c0.085-0.104,0.153-0.189,0.221-0.275l0.175-0.226l0.121,0.259C99.817,44.92,99.906,50.208,99.139,51.193z M106.896,35.918
		c0.37-6.316,2.894-10.133,4.325-11.393l0.299-0.263l-0.007,0.397c-0.047,2.114-1.397,7.805-4.308,11.378l-0.34,0.419
		L106.896,35.918z M115.813,48.66c-0.53,2.091-0.918,3.482-1.187,4.256c-0.507,1.471-1.274,2.046-1.825,2.094l-0.086,0.003
		c-0.391,0-0.748-0.229-0.959-0.612c-0.402-0.73-0.177-1.779,0.604-2.804c0.783-1.029,1.822-2.048,3.176-3.116l0.405-0.322
		L115.813,48.66z"/>
</g>
</svg>
