<?xml version="1.0" encoding="utf-8"?>
<!-- Generator: Adobe Illustrator 15.0.0, SVG Export Plug-In . SVG Version: 6.00 Build 0)  -->
<!DOCTYPE svg PUBLIC "-//W3C//DTD SVG 1.1//EN" "http://www.w3.org/Graphics/SVG/1.1/DTD/svg11.dtd">
<svg version="1.1" id="Calque_1" xmlns="http://www.w3.org/2000/svg" xmlns:xlink="http://www.w3.org/1999/xlink" x="0px" y="0px"
	 width="21.362px" height="22.573px" viewBox="0 0 21.362 22.573" enable-background="new 0 0 21.362 22.573" xml:space="preserve">
<g>
	<path fill="none" d="M8.939,15.728c3.742,0,6.787-3.045,6.787-6.787c0-3.741-3.045-6.784-6.787-6.784
		c-3.741,0-6.784,3.043-6.784,6.784C2.155,12.683,5.198,15.728,8.939,15.728z"/>
	<path fill="#686868" d="M21.089,20.779l-5.361-6.035c1.392-1.624,2.156-3.676,2.156-5.804c0-4.93-4.012-8.94-8.943-8.94
		C4.011,0,0,4.011,0,8.94c0,4.932,4.011,8.944,8.94,8.944c1.875,0,3.668-0.581,5.199-1.682l5.34,6.009
		c0.206,0.229,0.499,0.361,0.805,0.361c0.263,0,0.517-0.097,0.716-0.272c0.216-0.192,0.344-0.457,0.36-0.745
		C21.376,21.269,21.28,20.992,21.089,20.779z M8.939,2.156c3.742,0,6.787,3.043,6.787,6.784c0,3.742-3.045,6.787-6.787,6.787
		c-3.741,0-6.784-3.045-6.784-6.787C2.155,5.199,5.198,2.156,8.939,2.156z"/>
</g>
</svg>
