<?xml version="1.0" encoding="utf-8"?>
<!-- Generator: Adobe Illustrator 15.0.0, SVG Export Plug-In . SVG Version: 6.00 Build 0)  -->
<!DOCTYPE svg PUBLIC "-//W3C//DTD SVG 1.1//EN" "http://www.w3.org/Graphics/SVG/1.1/DTD/svg11.dtd">
<svg version="1.1" id="Calque_1" xmlns="http://www.w3.org/2000/svg" xmlns:xlink="http://www.w3.org/1999/xlink" x="0px" y="0px"
	 width="42.591px" height="42.591px" viewBox="-778.395 2411.86 42.591 42.591"
	 enable-background="new -778.395 2411.86 42.591 42.591" xml:space="preserve">
<rect x="1072.574" y="-4953.242" fill="#F5F5F5" width="1319.479" height="147.015"/>
<rect x="-50.296" y="-2251.633" fill="#F5F5F5" width="1319.478" height="147.015"/>
<g>
	<g>
		<path fill="#898989" d="M-757.099,2454.45c-11.742,0-21.295-9.554-21.295-21.296c0-11.741,9.553-21.295,21.295-21.295
			s21.296,9.554,21.296,21.295C-735.803,2444.897-745.357,2454.45-757.099,2454.45z M-757.099,2413.629
			c-10.767,0-19.526,8.76-19.526,19.525c0,10.767,8.759,19.526,19.526,19.526c10.767,0,19.526-8.76,19.526-19.526
			C-737.573,2422.389-746.332,2413.629-757.099,2413.629z"/>
	</g>
	<g>
		<polygon fill="#898989" points="-759.829,2443.38 -761.061,2442.111 -751.698,2433.023 -761.052,2424.22 -759.838,2422.931 
			-749.137,2433.004 		"/>
	</g>
</g>
</svg>
