<?xml version="1.0" encoding="utf-8"?>
<!-- Generator: Adobe Illustrator 15.0.0, SVG Export Plug-In . SVG Version: 6.00 Build 0)  -->
<!DOCTYPE svg PUBLIC "-//W3C//DTD SVG 1.1//EN" "http://www.w3.org/Graphics/SVG/1.1/DTD/svg11.dtd">
<svg version="1.1" id="Calque_1" xmlns="http://www.w3.org/2000/svg" xmlns:xlink="http://www.w3.org/1999/xlink" x="0px" y="0px"
	 width="42.591px" height="42.591px" viewBox="-778.395 2411.86 42.591 42.591"
	 enable-background="new -778.395 2411.86 42.591 42.591" xml:space="preserve">
<rect x="1072.574" y="-4953.242" fill="#F5F5F5" width="1319.479" height="147.015"/>
<rect x="-50.296" y="-2251.633" fill="#F5F5F5" width="1319.478" height="147.015"/>
<g>
	<g>
		<path fill="#898989" d="M-778.395,2433.155c0-11.741,9.554-21.295,21.296-21.295s21.295,9.554,21.295,21.295
			c0,11.742-9.553,21.296-21.295,21.296S-778.395,2444.897-778.395,2433.155z M-776.626,2433.155
			c0,10.767,8.759,19.526,19.526,19.526c10.767,0,19.526-8.76,19.526-19.526c0-10.766-8.759-19.525-19.526-19.525
			C-767.866,2413.629-776.626,2422.389-776.626,2433.155z"/>
	</g>
	<g>
		<polygon fill="#898989" points="-754.37,2443.38 -753.138,2442.111 -762.501,2433.023 -753.147,2424.22 -754.361,2422.931 
			-765.062,2433.004 		"/>
	</g>
</g>
</svg>
