<?xml version="1.0" encoding="utf-8"?>
<!-- Generator: Adobe Illustrator 15.0.0, SVG Export Plug-In . SVG Version: 6.00 Build 0)  -->
<!DOCTYPE svg PUBLIC "-//W3C//DTD SVG 1.1//EN" "http://www.w3.org/Graphics/SVG/1.1/DTD/svg11.dtd">
<svg version="1.1" id="Calque_1" xmlns="http://www.w3.org/2000/svg" xmlns:xlink="http://www.w3.org/1999/xlink" x="0px" y="0px"
	 width="130.581px" height="52.461px" viewBox="0 0 130.581 52.461" enable-background="new 0 0 130.581 52.461"
	 xml:space="preserve">
<g>
	<path fill="#999999" d="M129.135,24.874c-1.02-0.251-2.048,0.373-2.298,1.392c-0.354,1.439-1.926,2.903-3.959,4.413
		c0.749-3.202,1.399-6.07,1.785-7.78c0.211-0.832,0.33-1.439,0.377-1.688c0.19-1.019-0.471-2.002-1.485-2.21
		c-1.019-0.209-2.011,0.437-2.235,1.448c-0.008,0.032-0.122,0.547-0.316,1.412c-0.857,3.365-3.024,9.342-6.271,9.816
		c-0.039,0.006-0.067,0.007-0.086,0.007c-0.655-0.604-0.854-3.965-0.28-7.916c0.2-0.498,0.402-1.009,0.608-1.542
		c0.378-0.979-0.109-2.079-1.088-2.457c-0.291-0.112-0.592-0.14-0.882-0.109c-0.958-0.094-1.85,0.542-2.044,1.505
		c-0.079,0.392-0.182,0.94-0.285,1.592c-2.872,7.023-4.57,8.772-5.144,9.191c-0.254-0.389-0.646-1.306-0.895-2.836l-0.001-0.006
		c-0.107-0.874-0.189-1.725-0.246-2.553c0.72-0.605,1.434-1.294,2.141-2.068c5.729-6.261,8.854-18.624,7.42-22.25
		c-0.605-1.53-1.805-1.781-2.293-1.818c-1.672-0.131-3.357,1.231-4.467,2.394c-3.594,3.768-6.96,11.319-6.69,21.904
		c-1.278,0.808-2.532,1.236-3.75,1.279c-1.63,0.054-2.815-0.603-3.377-1c0.435-0.622,0.876-1.271,1.323-1.944
		c3.997-6.023,8.709-16.438,6.668-20.733c-0.553-1.164-1.544-1.872-2.791-1.994c-1.035-0.103-2.595,0.077-4.172,1.504
		c-2.517,2.275-4.291,7.212-5.523,12.608l-2.752-0.021c0.258-0.626,0.514-1.265,0.768-1.927c0.009-0.023,0.018-0.047,0.025-0.071
		c0.786-2.321,3.023-10.039-1.182-11.881c-0.674-0.295-2.049-0.551-3.697,1.043c-2.218,2.146-4.661,7.253-6.113,12.757l-3.61-0.027
		c-0.005,0-0.009,0-0.015,0c-1.042,0-1.891,0.841-1.898,1.885c-0.009,1.049,0.835,1.906,1.885,1.914l2.814,0.022
		c-0.423,2.486-0.702,5.464-0.449,8.485c-1.629,1.84-3.164,3.087-4.518,3.936c0.18-1.166,0.108-2.49-0.313-3.952
		c-0.658-2.282-0.874-3.718-0.919-4.596c0.638-0.896,1.054-1.571,1.196-1.809c0.31-0.516,0.357-1.146,0.129-1.702
		c-0.229-0.556-0.708-0.971-1.291-1.118c-0.717-0.181-1.862-0.073-2.732,0.826c-0.577,0.596-0.929,1.408-1.057,2.477
		c-1.987,2.571-5.066,5.725-7.874,5.853c-0.946,0.043-1.328-0.251-1.555-0.513c-0.986-1.143-0.815-4.03-0.58-5.245
		c0.143-0.717-0.139-1.451-0.722-1.889c-0.583-0.438-1.367-0.504-2.016-0.167c-1.474,0.764-2.761,2.048-3.864,3.548
		c0.092-0.489,0.177-0.988,0.254-1.496c0.156-1.027-0.541-1.989-1.565-2.161c-1.022-0.173-1.996,0.514-2.181,1.536
		c-0.085,0.464-0.201,1.118-0.332,1.893c-1.173,5.893-3.25,9.251-4.813,9.916c-0.315,0.133-0.593,0.157-1.005-0.135
		c-0.899-0.638-1.055-3.417-0.719-6.472c0.511-2.105,0.703-3.821,0.751-4.3c0.098-0.992-0.588-1.89-1.569-2.059
		c-0.985-0.167-1.929,0.453-2.165,1.42c-0.22,0.895-0.571,2.49-0.792,4.324c-0.892,3.431-2.525,7.119-4.945,7.342
		c-0.5,0.047-0.602-0.084-0.656-0.153c-1.008-1.282-0.192-6.484,1.201-10.537c0.325-0.942-0.134-1.974-1.05-2.366
		c-0.915-0.392-1.979-0.008-2.435,0.879c-0.021,0.04-1.182,2.279-2.866,4.778c-0.085-0.223-0.176-0.445-0.281-0.668
		c-1.362-2.877-3.325-3.929-4.73-4.305c-0.242-0.064-0.483-0.114-0.722-0.151c1.935-2.389,3.841-5.05,5.562-7.963
		c4.252-7.198,3.079-10.005,1.348-11.092c-2.732-1.714-7.334,1.132-11.195,6.924c-0.394,0.566-5.693,8.36-6.766,18.198
		c-3.445,3.094-5.969,4.806-6.023,4.843c-0.871,0.584-1.104,1.763-0.521,2.635c0.583,0.871,1.763,1.104,2.635,0.521
		c0.174-0.116,1.69-1.143,3.932-2.984c0.493,2.102,1.843,3.703,3.875,4.526c1.006,0.407,2.127,0.601,3.281,0.601
		c2.564,0,5.291-0.955,7.278-2.643c1.139-0.906,2.242-2.072,3.257-3.314c0.026,1.742,0.359,3.352,1.231,4.463
		c0.925,1.179,2.345,1.744,3.994,1.592c2.218-0.205,3.908-1.452,5.193-3.146c0.387,0.901,0.938,1.665,1.7,2.206
		c1.434,1.017,3.098,1.206,4.686,0.533c0.74-0.314,1.45-0.813,2.119-1.479c0.01,0.066,0.021,0.129,0.033,0.188
		c0.181,0.861,0.93,1.485,1.809,1.508c0.877,0.018,1.661-0.561,1.886-1.412c0.484-1.826,1.998-6.254,4.083-9.329
		c0.207,1.267,0.653,2.555,1.524,3.568c0.771,0.897,2.198,1.945,4.609,1.834c0.239-0.011,0.479-0.033,0.716-0.066
		c-0.662,0.608-0.816,1.62-0.321,2.408c1.411,2.246,3.644,3.497,5.942,3.497c0.26,0,0.52-0.021,0.779-0.053
		c1.302,0.082,5.712-0.061,10.937-4.919c0.148,0.49,0.317,0.976,0.508,1.453c1.047,2.625,2.765,3.33,4.021,3.46
		c1.828,0.189,3.953-0.773,6.35-2.873c-0.034,0.711-0.051,1.258-0.052,1.597c-0.01,3.566,0.482,8.317,2.88,10.698
		c0.982,0.978,2.221,1.492,3.582,1.492c0.018,0,0.033,0,0.051,0c0.746-0.007,2.144-0.274,3.119-1.991
		c1.694-2.983,1.285-9.657-0.603-15.311c0.446,0.059,0.919,0.089,1.415,0.076c1.346-0.03,2.686-0.342,4.013-0.931
		c0.027,0.248,0.056,0.497,0.087,0.748c0.004,0.025,0.013,0.085,0.017,0.111c0.615,3.784,2.063,5.902,4.188,6.124
		c1.854,0.192,3.609-1.088,5.522-4.195c0.261,1.062,0.675,1.991,1.305,2.656c0.87,0.919,2.067,1.32,3.379,1.128
		c0.394-0.058,0.772-0.148,1.139-0.27c-2.606,1.875-5.206,4.01-7.207,6.643c-2.007,2.641-2.441,5.605-1.161,7.93
		c0.93,1.687,2.666,2.723,4.507,2.723c0.14,0,0.281-0.006,0.421-0.018c1.188-0.104,4.12-0.836,5.697-5.417
		c0.685-1.987,1.787-6.278,2.883-10.799c0.057-0.039,0.114-0.078,0.172-0.116c4.248-2.88,7.916-5.366,8.795-8.94
		C130.776,26.152,130.153,25.124,129.135,24.874z M16.757,9.577c0.009-0.012,0.017-0.024,0.024-0.037
		c2.495-3.747,4.791-5.288,5.805-5.656c-0.048,0.727-0.417,2.451-2.378,5.771c-2.585,4.375-5.654,8.182-8.577,11.3
		C13.433,14.409,16.712,9.64,16.757,9.577z M12.188,31.636c-1.171-0.474-1.73-1.439-1.711-2.953
		c0.005-0.414,0.021-0.826,0.045-1.235c1.038-0.967,2.136-2.04,3.262-3.215c0.552-0.326,2.34-1.272,3.873-0.861
		c0.931,0.249,1.676,0.988,2.279,2.261c0.744,1.571,0.541,2.933-0.621,4.164C17.595,31.617,14.265,32.478,12.188,31.636z
		 M61.058,30.646c-0.268-0.428-0.679-0.711-1.131-0.828c2.165-0.776,4.141-2.33,5.767-3.971c0.136,0.569,0.296,1.169,0.479,1.804
		c0.612,2.127,0.115,3.842-1.297,4.474C63.753,32.627,62.138,32.365,61.058,30.646z M96.948,4.645
		c0.458-0.414,0.804-0.526,1.054-0.544c0.597,1.743-1.514,9.379-6.471,16.85c-0.013,0.019-0.024,0.036-0.036,0.055
		C92.603,14.09,94.402,6.947,96.948,4.645z M79.869,14.324c1.427-4.928,3.364-8.39,4.509-9.715c0.177,1.242-0.161,3.917-1.046,6.557
		c-0.436,1.134-0.874,2.202-1.315,3.218l-2.16-0.017C79.861,14.353,79.865,14.339,79.869,14.324z M78.954,18.159l1.278,0.009
		c-0.577,1.125-1.155,2.166-1.729,3.12C78.602,20.27,78.755,19.224,78.954,18.159z M80.419,32.327
		c-0.387-0.039-0.693-0.614-0.883-1.089c-0.414-1.038-0.719-2.194-0.914-3.445c1.932-2.429,3.908-5.562,5.83-9.592l3.654,0.027
		c-0.572,3.172-0.979,6.328-1.259,9.044C83.424,31.301,81.245,32.414,80.419,32.327z M92.632,43.213
		c-0.285-0.029-0.516-0.148-0.749-0.38c-1.095-1.087-1.769-4.15-1.758-7.994c0.003-1.317,0.124-3.45,0.368-5.997
		c0.1-0.123,0.201-0.249,0.303-0.376C93.599,34.385,93.689,41.857,92.632,43.213z M110.548,4.831
		c-0.072,3.272-2.139,11.385-6.196,16.369C104.893,11.984,108.542,6.596,110.548,4.831z M115.085,45.79
		c-0.695,2.021-1.711,2.806-2.431,2.868c-0.507,0.045-0.995-0.245-1.274-0.753c-0.534-0.97-0.214-2.39,0.857-3.798
		c1.259-1.656,2.859-3.131,4.566-4.478C116.126,42.299,115.512,44.551,115.085,45.79z"/>
</g>
</svg>
