<?xml version="1.0" encoding="utf-8"?>
<!-- Generator: Adobe Illustrator 15.0.0, SVG Export Plug-In . SVG Version: 6.00 Build 0)  -->
<!DOCTYPE svg PUBLIC "-//W3C//DTD SVG 1.1//EN" "http://www.w3.org/Graphics/SVG/1.1/DTD/svg11.dtd">
<svg version="1.1" id="Calque_1" xmlns="http://www.w3.org/2000/svg" xmlns:xlink="http://www.w3.org/1999/xlink" x="0px" y="0px"
	 width="67.487px" height="67.94px" viewBox="0 0 67.487 67.94" enable-background="new 0 0 67.487 67.94" xml:space="preserve">
<g>
	<path fill="#58B0E8" d="M67.487,51.525c0,9.064-7.351,16.415-16.417,16.415H16.416C7.354,67.94,0,60.59,0,51.525V16.415
		C0,7.353,7.354,0,16.416,0H51.07c9.066,0,16.417,7.353,16.417,16.415V51.525z"/>
</g>
<g>
	<path fill="#FFFFFF" d="M29.482,22.487c-1.751-1.341-3.821-2.123-9.195-2.123h-9.318v31.281h5.676V40.642h4.333
		c4.835,0,6.813-0.866,8.768-2.467c1.933-1.569,3.229-4.703,3.229-7.802C32.975,27.217,31.668,24.269,29.482,22.487z M25.229,34.879
		c-1.431,0.767-3.021,0.869-4.382,0.869h-4.2V25.26h3.941c1.521,0,3.126,0.107,4.559,0.871c1.53,0.735,2.417,2.319,2.417,4.331
		C27.567,32.441,26.668,34.132,25.229,34.879z"/>
	<path fill="#FFFFFF" d="M49.127,34.023l-0.686-0.282c-5.015-2.083-6.7-2.782-6.656-5.323c0-2.288,1.863-4.027,4.334-4.027
		c3.342,0,4.046,2.546,4.312,3.948h5.63c-0.433-6.323-5.465-8.579-9.722-8.579c-4.957,0-10.224,3.191-10.224,9.096
		c0,5.791,5.43,7.727,7.75,8.555l0.945,0.372c3.918,1.545,6.075,2.398,6.075,5.195c0,2.553-2.142,4.633-4.768,4.633
		c-0.457,0-4.435-0.147-4.874-5.149h-5.649c0.055,2.858,0.969,5.26,2.65,6.954c1.842,1.857,4.594,2.831,7.96,2.831
		c7.603,0,10.312-4.945,10.312-9.573C56.519,38.141,53.69,36.001,49.127,34.023z"/>
</g>
</svg>
