<?xml version="1.0" encoding="UTF-8" standalone="no"?>
<!DOCTYPE svg PUBLIC "-//W3C//DTD SVG 1.1//EN" "http://www.w3.org/Graphics/SVG/1.1/DTD/svg11.dtd">
<svg t="1498982076355" class="icon" style="" viewBox="0 0 1024 1024" version="1.1" xmlns="http://www.w3.org/2000/svg" p-id="2556" xmlns:xlink="http://www.w3.org/1999/xlink" width="20" height="20"><defs><style type="text/css"/></defs><path d="M665.66656 995.64544h-0.00512c-18.63168-0.01024-36.74624-7.71072-48.44032-20.61824-15.93856-17.47456-66.43712-62.91456-107.77088-62.91456-41.05216 0-92.32896 45.70112-107.0592 61.70624-11.66848 12.69248-29.65504 20.26496-48.10752 20.26496-8.79104 0-17.08544-1.68448-24.66304-5.01248l-1.32608-0.57856-125.63968-70.26176-1.24928-0.8704c-22.87104-16.01024-31.57504-47.32928-20.23936-72.85248 0.08704-0.19456 11.59168-26.73664 11.59168-50.93376 0-73.43616-59.7504-133.18656-133.18656-133.18656h-4.4544a21.87776 21.87776 0 0 1-0.80384 0.01536c-21.03808 0-38.16448-18.688-43.64288-47.61088-0.4352-2.31936-10.71616-57.16992-10.71616-100.38784 0-43.22304 10.27584-98.07872 10.71616-100.39808 5.53984-29.2864 23.04-48.1024 44.45184-47.59552h4.4544c73.43616 0 133.18656-59.7504 133.18656-133.18144 0-24.192-11.4944-50.72896-11.61728-50.9952-11.32032-25.49248-2.56-56.8064 20.41344-72.76544l1.30048-0.90112L335.44704 33.73568l1.3824-0.58368c7.47008-3.18464 15.64672-4.79744 24.30976-4.79744 18.41664 0 36.43392 7.40864 48.21504 19.82464 15.6928 16.43008 65.29536 59.16672 105.4464 59.16672 39.77728 0 89.07776-41.89184 104.71936-58.0352 11.71456-12.16 29.60384-19.44064 47.83104-19.44064 8.83712 0 17.16736 1.67424 24.76032 4.97152l1.34144 0.58368 128.06656 71.14752 1.26464 0.88576c22.91712 15.98976 31.6416 47.3088 20.3008 72.84224-0.08192 0.19456-11.59168 26.73664-11.59168 50.93888 0 73.43104 59.7504 133.18144 133.18144 133.18144h4.45952c21.376-0.47616 38.90176 18.304 44.44672 47.59552 0.4352 2.31936 10.71616 57.16992 10.71616 100.38784 0 43.22304-10.28096 98.07872-10.72128 100.39296-5.53984 29.29152-23.06048 48.03072-44.44672 47.59552h-4.44928c-73.43616 0-133.18144 59.7504-133.18144 133.18656 0 24.18688 11.4944 50.71872 11.61216 50.98496 11.3152 25.48224 2.57024 56.80128-20.36224 72.77568l-1.28 0.90112-130.23232 71.98208-1.35168 0.5888c-7.45984 3.2-15.60064 4.83328-24.2176 4.83328z m-3.95776-61.35296c0.57856 0.37888 2.2272 1.024 3.95264 1.024l0.19456-0.00512 121.67168-67.24608c-2.93888-6.81984-16.36352-39.936-16.36352-74.4704 0-103.30112 81.3568-187.9552 183.36768-193.24928 1.46432-8.10496 9.43616-53.71392 9.43616-87.92576 0-34.21184-7.97184-79.7952-9.43616-87.92576-102.00576-5.2992-183.36768-89.95328-183.36768-193.24928 0-34.59072 13.47072-67.74784 16.37888-74.51648l-119.70048-66.50368c-0.13824-0.00512-0.3072-0.02048-0.50176-0.02048-2.03776 0-3.9424 0.74752-4.57728 1.17248-2.01216 2.06336-19.35872 19.6608-44.28288 37.19168-36.89472 25.95328-71.77728 39.1168-103.69536 39.1168-32.22016 0-67.38432-13.42464-104.51456-39.8848-25.07776-17.8688-42.51136-35.80416-44.52352-37.90848-0.63488-0.43008-2.57024-1.19808-4.62336-1.19808-0.15872 0-0.30208 0.00512-0.42496 0.01536l-123.98592 68.096c2.97472 6.90688 16.35328 39.96672 16.35328 74.4448 0 103.296-81.3568 187.95008-183.36768 193.24928-1.46432 8.1152-9.43616 53.71392-9.43616 87.92576 0 34.20672 7.96672 79.79008 9.44128 87.91552 102.00064 5.2992 183.35744 89.95328 183.35744 193.24928 0 34.6624-13.52192 67.87584-16.40448 74.55744l117.34528 65.61792a8.30976 8.30976 0 0 0 4.17792-0.99328c2.19648-2.35008 19.71712-20.90496 44.96896-39.40864 37.62688-27.57632 73.38496-41.55904 106.28096-41.55904 33.2032 0 69.23776 14.24384 107.0848 42.35264 25.41056 18.8416 43.008 37.73952 45.19424 40.13568z m-151.8336-245.18656c-97.79712 0-177.36192-79.56992-177.36192-177.36704 0-97.79712 79.5648-177.36192 177.36192-177.36192 97.80224 0 177.37216 79.5648 177.37216 177.36192 0 97.80224-79.56992 177.36704-177.37216 177.36704z m0-294.4c-64.53248 0-117.02784 52.50048-117.02784 117.03296 0 64.5376 52.50048 117.03808 117.02784 117.03808 64.5376 0 117.0432-52.50048 117.0432-117.03808 0.00512-64.53248-52.50048-117.03296-117.0432-117.03296z" fill="" p-id="2557"/></svg>