<svg width="519" height="763" viewBox="0 0 519 763" xmlns="http://www.w3.org/2000/svg"><title>half-sino</title><path d="M190.99 761.816c1.294 1.446 18.227-5.202 21.81-12.379 4.858-13.982 9.934-20.143 8.056-22.792-.566-2.264-5.952-6.29-8.056-6.711-1.233-.503-2.617-.78-4.103-.885.944-.429 1.923-.949 3.02-1.555.282-1.72.443-5.805-.392-7.27-1.215-.236-2.497-.417-4.126-.393-.807-3.225-2.402-1.99.196-5.109 3.031 0 4.716-5.26 4.912-7.663 1.047-5.23 28.738-8.096 34.385-9.824 8.407 0 22.085-8.764 24.168-17.094.638-1.271.826-5.933 4.716-3.34 0 2.2 6.917 9.39 9.627 6.876 4.844 0 5.512-11.03 10.61-9.43 12.48 3.911 24.886-8.763 34.386-14.148-.055-1.527-.801-2.299-.393-3.733 0-5.415 9.987-7.128 14.736-9.038 3.866 0 13.524-19.056 15.523-21.22.59-2.14 10.094-1.99 12.182-8.253 7.28-3.64.62-11.512 10.02-12.182 1.195-4.723-.038-7.617-.392-12.576-1.835-5.819 4.605-3.994 5.108-8.252-2.146-.481-6.877-2.275-6.877-4.912.668-1.405 4.622-1.245 6.877-1.18 4.023-3.447 3.268-10.507 7.86-13.557.402-11.664 1.63-12.872 6.68-21.613 16.926 0 5.305-14.026 5.502-24.168 1.936-1.702 4.081.456 6.287-2.161 1.51-1.515-.196-5.497-.196-7.074-1.518-2.535-6.07 2.555-7.663 2.555 0-3.868 8.371-6.294 9.824-11.397-6.398-2.505-20.086-9.162-24.757-.393-1.764 0-5.066.209-6.484-.982 4.203-4.728 22.989-12.273 23.185-20.827-2.584-7.555-7.775-10.128-12.378-12.772.3-2.497 15.415-2.903 7.86-7.074-6.235-4.675-13.013-7.406-18.863-13.164-7.817-3.906-8.69-36.94-30.456-39.887 0-.514-2.161-1.151-3.144-3.34 0-.303 1.849-12.066 2.751-13.95 0-.707 1.447-2.805 2.161-3.34 0-.132 5.001-7.37 5.502-9.04 2.042 1.452 16.866-13.63 15.523-15.915.298.168 15.745-6.523 16.504-7.662 3.016 0 2.162-8.114 2.162-9.235-3.164-1.58-5.888-3.011-10.218-1.769-7.179 2.06-12.667-4.52-18.862-2.75-14.467 0-14.493 17.683-22.203 17.683-1.993-.285-7.218-5.704-8.253-7.466 0-3.625-1.187-6.838-2.554-10.021-5.03-2.047-14.916 3.094-16.308 2.358 0-3.569-1.882-5.171-2.751-8.646-6.022-3.01-3.553-11.55.393-14.932 3.035-.76 15.374-3.019 16.898-5.306.038 0 32.616-39.485 32.616-39.69 4.273-1.699 9.939.063 11.2 5.109 2.308 8.692-6.091 10.829-6.484 18.47-3.52 0 4.126 9.569 4.126 11.396-4.377 0-7.386 6.664-7.073 10.413 3.99-.09 8.117-.453 12.182-.589 0-.065 4.702-7.428 4.912-11.2 7.624-17.425 20.794-12.907 31.241-21.613.35-3.783 2.948-7.909 2.948-11.2 3.235-2.697 6.213-6.46 11.003-8.252 3.504-5.257 9.216-9.161 10.807-15.523 1.83 0 2.435-8.33 4.912-9.234 5.85 0 10.683 3.536 17.29 3.536 1.45.901 7.578-3.016 6.681-7.466.164-2.483-1.655-6.089-4.912-8.056.013-1.537-.009-1.402.982-2.161 3.058 0 7.767-.375 9.825-2.948 3.533-1.767 6.651-12.344 7.073-15.719.301 0 1.984-3.269 4.126-3.536 1.582-.153.09 7.376 2.948 10.806 1.272.116 8.645 2.517 8.645 1.769 1.785-.447 2.28-1.737 2.75-3.537.504-1.92 2.948-11.971 3.145-13.361 3.565-12.266-15.95-30.838-12.183-42.245.903-2.732 5.703-4.513 7.27-7.073 4.242 0 11.8 3.518 14.933-1.179 2.838-2.793 2.625-5.171 2.948-9.038-2.413-1.56 1.38-39.072 3.536-44.8.71-.422-3.107-5.046-3.733-5.304-5.038-4.03-.364-15.874-5.108-17.487-8.53 0-21.045 11.901-25.15 19.059-4.833 4.749-12.483 13.587-20.828 11.003-5.276 0-11.79-13.01-11.79-17.487-4.476-1.026-12.356-3.208-12.77-7.074-.48-.575-3.93-1.962-3.93-2.358-2.513-.732-11.004 1.162-11.004-.786-3.41-1.344-11.569-.393-16.112-.786-1.932 0-3.174-6.801-4.126-9.038-3.67-2.753-6.484-5.547-6.68-11.396-3.22-2.575-6.789-6.1-10.021-9.431-.328-.262-.655-.525-1.572-1.965 0-4.246-21.8-26.928-23.185-27.705-6.326-2.709-10.304-2.105-17.488-1.965-3.792 0-8.265-4.014-12.182-3.143H0v761.692s187.941.906 190.99 0zm210.14-103.5c-4.505-5.405-7.383-6.879-9.235-13.36.546-5.465 1.25-10.289 1.572-16.112h.197c0-6.98 3.537-8.374 3.537-14.344h.196c0-6.261 6.252-17.708 11.396-22.203.771-1.08 7.712-2.304 9.431-1.572 12.552 1.793 4.52 9.13 4.52 14.54h-.197c0 7.73 3.08 18.905.983 25.936 0 3.075-2.948 5.596-2.948 7.86-1.719 2.601-7.663 3.366-7.663 7.663h-.196c-2.822 7.494.713 12.365-5.698 19.845l-.197-.197h-.196c0-2.298-4.9-4.817-5.305-8.056h-.197z" fill="#232A30" fill-rule="evenodd"/></svg>