<?xml version="1.0" standalone="no"?><!DOCTYPE svg PUBLIC "-//W3C//DTD SVG 1.1//EN" "http://www.w3.org/Graphics/SVG/1.1/DTD/svg11.dtd"><svg t="1573622946297" class="icon" viewBox="0 0 1024 1024" version="1.1" xmlns="http://www.w3.org/2000/svg" p-id="5229" xmlns:xlink="http://www.w3.org/1999/xlink" width="512" height="512"><defs><style type="text/css">html, * { user-select: text !important; }
</style></defs><path d="M838.087111 563.086222l-13.767111-184.547555c-3.299556-44.259556-39.139556-80.099556-83.399111-83.285334l-183.978667-13.198222c-33.336889-2.389333-66.446222 9.898667-90.225778 33.678222L172.942222 609.507556c-45.169778 45.169778-45.169778 118.670222 0 163.84l173.966222 173.966222c21.845333 21.845333 50.972444 33.905778 81.92 33.905778 30.947556 0 60.074667-12.060444 81.92-33.905778L804.408889 653.539556c23.893333-23.893333 36.181333-56.888889 33.678222-90.453334z" fill="#A3A3A3" p-id="5230"></path><path d="M864.142222 512.682667l-13.767111-184.547556c-3.299556-44.259556-39.139556-80.099556-83.399111-83.285333l-183.978667-13.198222c-33.336889-2.389333-66.446222 9.898667-90.225777 33.678222L198.997333 559.104c-45.169778 45.169778-45.169778 118.670222 0 163.84l173.966223 173.966222c21.845333 21.845333 50.972444 33.905778 81.92 33.905778 30.947556 0 60.074667-12.060444 81.92-33.905778L830.577778 603.136c23.779556-23.893333 35.953778-56.888889 33.564444-90.453333z" fill="#FFD44D" p-id="5231"></path><path d="M237.112889 713.841778c3.072-2.958222 3.185778-7.964444 0.227555-11.036445-2.958222-3.072-7.964444-3.185778-11.036444-0.227555-3.072 2.958222-3.185778 7.964444-0.227556 11.036444 2.958222 3.072 7.964444 3.185778 11.036445 0.227556zM292.295111 714.979556c3.072-2.958222 3.185778-7.964444 0.227556-11.036445-2.958222-3.072-7.964444-3.185778-11.036445-0.227555-3.072 2.958222-3.185778 7.964444-0.227555 11.036444 3.072 3.072 7.964444 3.185778 11.036444 0.227556zM238.250667 658.545778c3.072-2.958222 3.185778-7.964444 0.227555-11.036445-2.958222-3.072-7.964444-3.185778-11.036444-0.227555-3.072 2.958222-3.185778 7.964444-0.227556 11.036444 2.958222 3.185778 7.964444 3.299556 11.036445 0.227556zM235.975111 769.024c3.072-2.958222 3.185778-7.964444 0.227556-11.036444-2.958222-3.072-7.964444-3.185778-11.036445-0.227556-3.072 2.958222-3.185778 7.964444-0.227555 11.036444 2.958222 3.072 7.964444 3.185778 11.036444 0.227556zM181.930667 712.704c3.072-2.958222 3.185778-7.964444 0.227555-11.036444-2.958222-3.072-7.964444-3.185778-11.036444-0.227556-3.072 2.958222-3.185778 7.964444-0.227556 11.036444 2.958222 3.072 7.850667 3.185778 11.036445 0.227556zM128.910222 601.201778c3.072-2.958222 3.185778-7.964444 0.227556-11.036445-2.958222-3.072-7.964444-3.185778-11.036445-0.227555-3.072 2.958222-3.185778 7.964444-0.227555 11.036444 2.958222 3.072 7.964444 3.185778 11.036444 0.227556zM130.048 545.905778c3.072-2.958222 3.185778-7.964444 0.227556-11.036445-2.958222-3.072-7.964444-3.185778-11.036445-0.227555-3.072 2.958222-3.185778 7.964444-0.227555 11.036444 2.958222 3.185778 7.964444 3.299556 11.036444 0.227556zM127.772444 656.384c3.072-2.958222 3.185778-7.964444 0.227556-11.036444-2.958222-3.072-7.964444-3.185778-11.036444-0.227556-3.072 2.958222-3.185778 7.964444-0.227556 11.036444 3.072 3.072 7.964444 3.185778 11.036444 0.227556zM183.068444 657.521778c2.275556-2.275556 2.958222-5.575111 1.934223-8.419556-0.341333-0.910222-0.910222-1.820444-1.706667-2.616889l-0.568889-0.568889c-0.796444-0.682667-1.706667-1.137778-2.730667-1.479111-0.682667-0.227556-1.479111-0.341333-2.161777-0.341333-2.048 0-3.982222 0.682667-5.575111 2.161778-1.592889 1.479111-2.389333 3.527111-2.389334 5.461333 0 0.455111 0 1.024 0.113778 1.479111 0.227556 1.479111 0.910222 2.958222 2.048 4.096 0.796444 0.796444 1.592889 1.365333 2.503111 1.820445 2.844444 1.137778 6.144 0.568889 8.533333-1.592889zM349.752889 605.639111c3.072-2.958222 3.185778-7.964444 0.227555-11.036444-2.958222-3.072-7.964444-3.185778-11.036444-0.227556-3.072 2.958222-3.185778 7.964444-0.227556 11.036445 2.958222 3.072 7.964444 3.185778 11.036445 0.227555zM405.048889 606.776889c3.072-2.958222 3.185778-7.964444 0.227555-11.036445-2.958222-3.072-7.964444-3.185778-11.036444-0.227555-3.072 2.958222-3.185778 7.964444-0.227556 11.036444 2.958222 3.072 7.850667 3.185778 11.036445 0.227556zM350.890667 550.456889c3.072-2.958222 3.185778-7.964444 0.227555-11.036445-2.958222-3.072-7.964444-3.185778-11.036444-0.227555-3.072 2.958222-3.185778 7.964444-0.227556 11.036444 2.958222 3.072 7.964444 3.185778 11.036445 0.227556zM348.615111 660.821333c3.072-2.958222 3.185778-7.964444 0.227556-11.036444-2.958222-3.072-7.964444-3.185778-11.036445-0.227556-3.072 2.958222-3.185778 7.964444-0.227555 11.036445 3.072 3.185778 7.964444 3.185778 11.036444 0.227555zM294.570667 604.501333c3.072-2.958222 3.185778-7.964444 0.227555-11.036444-2.958222-3.072-7.964444-3.185778-11.036444-0.227556-3.072 2.958222-3.185778 7.964444-0.227556 11.036445 2.958222 3.072 7.964444 3.185778 11.036445 0.227555zM293.432889 659.683556c3.072-2.958222 3.185778-7.964444 0.227555-11.036445-2.958222-3.072-7.964444-3.185778-11.036444-0.227555-3.072 2.958222-3.185778 7.964444-0.227556 11.036444 2.958222 3.185778 7.964444 3.299556 11.036445 0.227556zM296.846222 494.023111c3.072-2.958222 3.185778-7.964444 0.227556-11.036444-2.958222-3.072-7.964444-3.185778-11.036445-0.227556-3.072 2.958222-3.185778 7.964444-0.227555 11.036445 2.958222 3.185778 7.850667 3.299556 11.036444 0.227555zM242.688 437.703111c3.072-2.958222 3.185778-7.964444 0.227556-11.036444-2.958222-3.072-7.964444-3.185778-11.036445-0.227556-3.072 2.958222-3.185778 7.964444-0.227555 11.036445 2.958222 3.185778 7.964444 3.299556 11.036444 0.227555zM240.526222 548.181333c3.072-2.958222 3.185778-7.964444 0.227556-11.036444-2.958222-3.072-7.964444-3.185778-11.036445-0.227556-3.072 2.958222-3.185778 7.964444-0.227555 11.036445 2.958222 3.072 7.850667 3.185778 11.036444 0.227555zM186.368 491.861333c3.072-2.958222 3.185778-7.964444 0.227556-11.036444-2.958222-3.072-7.964444-3.185778-11.036445-0.227556-3.072 2.958222-3.185778 7.964444-0.227555 11.036445 2.958222 3.072 7.964444 3.185778 11.036444 0.227555zM295.708444 549.319111c2.275556-2.275556 2.958222-5.575111 1.934223-8.419555-0.341333-0.910222-0.910222-1.820444-1.706667-2.616889-1.251556-1.365333-2.958222-2.161778-4.778667-2.389334h-0.796444c-2.048 0-3.982222 0.682667-5.575111 2.161778-1.592889 1.479111-2.389333 3.527111-2.389334 5.461333 0 0.455111 0 1.024 0.113778 1.479112 0.227556 1.479111 0.910222 2.958222 2.048 4.096 0.796444 0.796444 1.592889 1.365333 2.503111 1.820444 2.958222 1.137778 6.257778 0.568889 8.647111-1.592889zM239.388444 603.363556c2.389333-2.275556 2.958222-5.575111 1.934223-8.419556-0.341333-0.910222-0.910222-1.820444-1.706667-2.616889-0.910222-1.024-2.048-1.592889-3.299556-2.048-0.682667-0.227556-1.479111-0.341333-2.161777-0.341333-2.048 0-3.982222 0.682667-5.575111 2.161778-1.592889 1.479111-2.389333 3.527111-2.389334 5.461333 0 0.455111 0 1.024 0.113778 1.479111 0.227556 1.479111 0.910222 2.958222 2.048 4.096 0.796444 0.796444 1.592889 1.365333 2.503111 1.820444 2.844444 1.137778 6.144 0.682667 8.533333-1.592888zM462.392889 497.436444c3.072-2.958222 3.185778-7.964444 0.227555-11.036444-2.958222-3.072-7.964444-3.185778-11.036444-0.227556-3.072 2.958222-3.185778 7.964444-0.227556 11.036445 3.072 3.072 7.964444 3.185778 11.036445 0.227555zM461.368889 552.618667c3.072-2.958222 3.185778-7.964444 0.227555-11.036445-2.958222-3.072-7.964444-3.185778-11.036444-0.227555-3.072 2.958222-3.185778 7.964444-0.227556 11.036444 2.958222 3.185778 7.850667 3.185778 11.036445 0.227556zM407.210667 496.298667c3.072-2.958222 3.185778-7.964444 0.227555-11.036445-2.958222-3.072-7.964444-3.185778-11.036444-0.227555-3.072 2.958222-3.185778 7.964444-0.227556 11.036444 2.958222 3.185778 7.964444 3.185778 11.036445 0.227556zM406.072889 551.480889c3.072-2.958222 3.185778-7.964444 0.227555-11.036445-2.958222-3.072-7.964444-3.185778-11.036444-0.227555-3.072 2.958222-3.185778 7.964444-0.227556 11.036444 3.072 3.185778 7.964444 3.299556 11.036445 0.227556zM353.166222 439.978667c3.072-2.958222 3.185778-7.964444 0.227556-11.036445-2.958222-3.072-7.964444-3.185778-11.036445-0.227555-3.072 2.958222-3.185778 7.964444-0.227555 11.036444 2.958222 3.072 7.850667 3.185778 11.036444 0.227556zM299.008 383.658667c3.072-2.958222 3.185778-7.964444 0.227556-11.036445-2.958222-3.072-7.964444-3.185778-11.036445-0.227555-3.072 2.958222-3.185778 7.964444-0.227555 11.036444 2.958222 3.072 7.964444 3.185778 11.036444 0.227556zM408.348444 441.116444c2.275556-2.275556 2.958222-5.575111 1.934223-8.419555-0.341333-0.910222-0.910222-1.820444-1.706667-2.616889-1.137778-1.137778-2.503111-1.934222-3.982222-2.275556-0.455111-0.113778-1.024-0.113778-1.479111-0.227555-2.048 0-3.982222 0.682667-5.575111 2.161778-1.592889 1.479111-2.389333 3.527111-2.389334 5.461333 0 0.455111 0 1.024 0.113778 1.479111 0.227556 1.479111 0.910222 2.958222 2.048 4.096 0.796444 0.796444 1.592889 1.365333 2.503111 1.820445 2.844444 1.251556 6.144 0.796444 8.533333-1.479112zM352.028444 495.160889c0.341333-0.227556 0.568889-0.568889 0.796445-0.910222 1.706667-2.161778 2.048-5.006222 1.137778-7.509334-0.341333-0.910222-0.910222-1.820444-1.706667-2.616889-0.910222-1.024-2.048-1.592889-3.299556-2.048-0.682667-0.227556-1.479111-0.341333-2.161777-0.341333-2.048 0-3.982222 0.682667-5.575111 2.161778-1.592889 1.479111-2.389333 3.527111-2.389334 5.461333 0 0.455111 0 1.024 0.113778 1.479111 0.227556 1.479111 0.910222 2.958222 2.048 4.096 0.796444 0.796444 1.592889 1.365333 2.503111 1.820445 2.844444 1.137778 6.144 0.682667 8.533333-1.592889zM499.029333 873.813333c-3.072 2.958222-3.185778 7.964444-0.227555 11.036445 2.958222 3.072 7.964444 3.185778 11.036444 0.227555 3.072-2.958222 3.185778-7.964444 0.227556-11.036444-2.958222-3.185778-7.964444-3.299556-11.036445-0.227556zM454.656 883.939556c3.072-2.958222 3.185778-7.964444 0.227556-11.036445-2.958222-3.072-7.964444-3.185778-11.036445-0.227555-3.072 2.958222-3.185778 7.964444-0.227555 11.036444 2.958222 3.072 7.850667 3.185778 11.036444 0.227556zM345.315556 826.481778c3.072-2.958222 3.185778-7.964444 0.227555-11.036445-2.958222-3.072-7.964444-3.185778-11.036444-0.227555-3.072 2.958222-3.185778 7.964444-0.227556 11.036444 2.958222 3.072 7.964444 3.185778 11.036445 0.227556zM400.497778 827.619556c3.072-2.958222 3.185778-7.964444 0.227555-11.036445-2.958222-3.072-7.964444-3.185778-11.036444-0.227555-3.072 2.958222-3.185778 7.964444-0.227556 11.036444 2.958222 3.072 7.964444 3.185778 11.036445 0.227556zM346.453333 771.299556c3.072-2.958222 3.185778-7.964444 0.227556-11.036445-2.958222-3.072-7.964444-3.185778-11.036445-0.227555-3.072 2.958222-3.185778 7.964444-0.227555 11.036444 2.958222 3.072 7.850667 3.185778 11.036444 0.227556zM344.177778 881.664c3.072-2.958222 3.185778-7.964444 0.227555-11.036444-2.958222-3.072-7.964444-3.185778-11.036444-0.227556-3.072 2.958222-3.185778 7.964444-0.227556 11.036444 2.958222 3.185778 7.964444 3.185778 11.036445 0.227556zM290.133333 825.344c3.072-2.958222 3.185778-7.964444 0.227556-11.036444-2.958222-3.072-7.964444-3.185778-11.036445-0.227556-3.072 2.958222-3.185778 7.964444-0.227555 11.036444 2.958222 3.072 7.850667 3.185778 11.036444 0.227556zM396.743111 884.508444c0.910222-0.341333 1.820444-0.910222 2.616889-1.706666 0.796444-0.796444 1.365333-1.592889 1.820444-2.503111 1.251556-2.844444 0.682667-6.144-1.592888-8.533334-0.796444-0.796444-1.592889-1.365333-2.503112-1.820444-1.820444-0.796444-3.982222-0.796444-5.916444-0.113778-0.910222 0.341333-1.820444 0.910222-2.616889 1.706667-0.796444 0.796444-1.365333 1.592889-1.820444 2.503111-0.796444 1.820444-0.796444 3.982222-0.113778 5.916444 0.341333 0.910222 0.910222 1.820444 1.706667 2.616889 2.275556 2.275556 5.575111 2.958222 8.419555 1.934222zM287.857778 772.096c0.113778 0 0.341333-0.113778 0.455111-0.113778 0.113778 0 0.113778 0 0.227555-0.113778 0.910222-0.341333 1.820444-0.910222 2.616889-1.706666 1.479111-1.479111 2.275556-3.299556 2.389334-5.233778v-0.455111c0-1.934222-0.796444-3.868444-2.161778-5.347556-1.251556-1.365333-2.958222-2.161778-4.778667-2.389333h-0.796444c-2.048 0-3.982222 0.682667-5.575111 2.161778-1.137778 1.137778-1.934222 2.503111-2.275556 3.982222-0.113778 0.455111-0.113778 1.024-0.227555 1.479111 0 1.024 0.113778 2.048 0.455111 2.958222 0.341333 0.910222 0.910222 1.820444 1.706666 2.616889 0.227556 0.227556 0.568889 0.455111 0.796445 0.682667 2.275556 1.592889 4.892444 2.048 7.168 1.479111zM611.669333 765.610667c-3.072 2.958222-3.185778 7.964444-0.227555 11.036444 2.958222 3.072 7.964444 3.185778 11.036444 0.227556 3.072-2.958222 3.185778-7.964444 0.227556-11.036445-2.958222-3.185778-7.964444-3.299556-11.036445-0.227555zM555.349333 819.655111c-3.072 2.958222-3.185778 7.964444-0.227555 11.036445 2.958222 3.072 7.964444 3.185778 11.036444 0.227555 3.072-2.958222 3.185778-7.964444 0.227556-11.036444-2.958222-3.072-7.964444-3.185778-11.036445-0.227556zM567.296 775.736889c3.072-2.958222 3.185778-7.964444 0.227556-11.036445-2.958222-3.072-7.964444-3.185778-11.036445-0.227555-3.072 2.958222-3.185778 7.964444-0.227555 11.036444 2.958222 3.072 7.850667 3.185778 11.036444 0.227556zM510.976 829.781333c3.072-2.958222 3.185778-7.964444 0.227556-11.036444-2.958222-3.072-7.964444-3.185778-11.036445-0.227556-3.072 2.958222-3.185778 7.964444-0.227555 11.036445 2.958222 3.185778 7.850667 3.299556 11.036444 0.227555zM457.955556 718.279111c3.072-2.958222 3.185778-7.964444 0.227555-11.036444-2.958222-3.072-7.964444-3.185778-11.036444-0.227556-3.072 2.958222-3.185778 7.964444-0.227556 11.036445 2.958222 3.072 7.964444 3.185778 11.036445 0.227555zM513.137778 719.416889c3.072-2.958222 3.185778-7.964444 0.227555-11.036445-2.958222-3.072-7.964444-3.185778-11.036444-0.227555-3.072 2.958222-3.185778 7.964444-0.227556 11.036444 3.072 3.072 7.964444 3.185778 11.036445 0.227556zM459.093333 663.096889c3.072-2.958222 3.185778-7.964444 0.227556-11.036445-2.958222-3.072-7.964444-3.185778-11.036445-0.227555-3.072 2.958222-3.185778 7.964444-0.227555 11.036444 2.958222 3.072 7.964444 3.185778 11.036444 0.227556zM456.817778 773.461333c3.072-2.958222 3.185778-7.964444 0.227555-11.036444-2.958222-3.072-7.964444-3.185778-11.036444-0.227556-3.072 2.958222-3.185778 7.964444-0.227556 11.036445 3.072 3.185778 7.964444 3.299556 11.036445 0.227555zM402.773333 717.141333c3.072-2.958222 3.185778-7.964444 0.227556-11.036444-2.958222-3.072-7.964444-3.185778-11.036445-0.227556-3.072 2.958222-3.185778 7.964444-0.227555 11.036445 2.958222 3.185778 7.964444 3.185778 11.036444 0.227555zM509.496889 776.305778c0.910222-0.341333 1.820444-0.910222 2.616889-1.706667 0.796444-0.796444 1.365333-1.592889 1.820444-2.503111 1.251556-2.844444 0.682667-6.144-1.592889-8.533333-0.796444-0.796444-1.592889-1.365333-2.503111-1.820445-1.820444-0.796444-3.982222-0.796444-5.916444-0.113778-0.910222 0.341333-1.820444 0.910222-2.616889 1.706667-0.796444 0.796444-1.365333 1.592889-1.820445 2.503111-0.796444 1.820444-0.796444 3.982222-0.113777 5.916445 0.341333 0.910222 0.910222 1.820444 1.706666 2.616889 2.161778 2.389333 5.575111 2.958222 8.419556 1.934222zM401.635556 772.323556c3.072-2.958222 3.185778-7.964444 0.227555-11.036445-2.958222-3.072-7.964444-3.185778-11.036444-0.227555-3.072 2.958222-3.185778 7.964444-0.227556 11.036444 2.958222 3.185778 7.964444 3.299556 11.036445 0.227556zM453.063111 830.350222c0.910222-0.341333 1.820444-0.910222 2.616889-1.706666 0.796444-0.796444 1.365333-1.592889 1.820444-2.503112 1.251556-2.844444 0.682667-6.144-1.592888-8.533333-0.796444-0.796444-1.592889-1.365333-2.503112-1.820444-1.820444-0.796444-3.982222-0.796444-5.916444-0.113778-0.910222 0.341333-1.820444 0.910222-2.616889 1.706667-0.796444 0.796444-1.365333 1.592889-1.820444 2.503111-0.796444 1.820444-0.796444 3.982222-0.113778 5.916444 0.341333 0.910222 0.910222 1.820444 1.706667 2.616889 2.275556 2.389333 5.688889 3.072 8.419555 1.934222zM400.042667 664.007111c1.365333-0.227556 2.730667-0.910222 3.868444-2.048l0.568889-0.568889c1.137778-1.365333 1.706667-2.958222 1.820444-4.664889 0.113778-1.820444-0.455111-3.527111-1.592888-5.12-0.227556-0.227556-0.341333-0.455111-0.568889-0.682666-0.910222-1.024-2.048-1.592889-3.299556-2.048-0.227556-0.113778-0.455111-0.113778-0.682667-0.227556-0.682667-0.113778-1.479111-0.227556-2.275555-0.113778-1.706667 0.113778-3.413333 0.796444-4.778667 2.161778-0.796444 0.796444-1.365333 1.592889-1.820444 2.503111-0.455111 1.137778-0.682667 2.389333-0.568889 3.640889 0 0.227556 0 0.455111 0.113778 0.796445 0.227556 1.479111 0.910222 2.958222 2.048 4.096 0.227556 0.227556 0.568889 0.455111 0.796444 0.682666 1.820444 1.479111 4.096 2.048 6.371556 1.592889zM344.177778 717.937778c1.251556-0.341333 2.389333-0.910222 3.299555-1.934222 1.365333-1.251556 2.161778-2.958222 2.389334-4.664889 0-0.227556 0-0.568889 0.113777-0.796445 0-0.682667-0.113778-1.365333-0.227555-2.048 0-0.227556-0.113778-0.455111-0.227556-0.568889 0-0.113778-0.113778-0.227556-0.113777-0.341333-0.113778-0.341333-0.341333-0.682667-0.455112-0.910222-0.113778-0.113778-0.227556-0.341333-0.341333-0.455111-0.227556-0.341333-0.568889-0.682667-0.796444-1.024-0.796444-0.796444-1.592889-1.365333-2.503111-1.820445-2.844444-1.251556-6.144-0.682667-8.533334 1.592889-0.568889 0.568889-1.024 1.137778-1.479111 1.820445-0.227556 0.455111-0.455111 0.910222-0.568889 1.365333-0.113778 0.227556-0.113778 0.455111-0.227555 0.682667-0.568889 2.503111 0.113778 5.12 2.048 7.054222 0.227556 0.227556 0.568889 0.455111 0.796444 0.682666 1.934222 1.479111 4.551111 2.048 6.826667 1.365334zM667.989333 711.452444c-3.072 2.958222-3.185778 7.964444-0.227555 11.036445 2.958222 3.072 7.964444 3.185778 11.036444 0.227555 3.072-2.958222 3.185778-7.964444 0.227556-11.036444-2.958222-3.072-7.964444-3.185778-11.036445-0.227556zM623.616 721.578667c3.072-2.958222 3.185778-7.964444 0.227556-11.036445-2.958222-3.072-7.964444-3.185778-11.036445-0.227555-3.072 2.958222-3.185778 7.964444-0.227555 11.036444 2.958222 3.185778 7.964444 3.299556 11.036444 0.227556zM570.595556 610.076444c3.072-2.958222 3.185778-7.964444 0.227555-11.036444-2.958222-3.072-7.964444-3.185778-11.036444-0.227556-3.072 2.958222-3.185778 7.964444-0.227556 11.036445 3.072 3.072 7.964444 3.185778 11.036445 0.227555zM569.457778 665.258667c3.072-2.958222 3.185778-7.964444 0.227555-11.036445-2.958222-3.072-7.964444-3.185778-11.036444-0.227555-3.072 2.958222-3.185778 7.964444-0.227556 11.036444 3.072 3.185778 7.964444 3.299556 11.036445 0.227556zM515.413333 608.938667c3.072-2.958222 3.185778-7.964444 0.227556-11.036445-2.958222-3.072-7.964444-3.185778-11.036445-0.227555-3.072 2.958222-3.185778 7.964444-0.227555 11.036444 2.958222 3.185778 7.964444 3.299556 11.036444 0.227556zM622.136889 668.103111c0.910222-0.341333 1.820444-0.910222 2.616889-1.706667 0.796444-0.796444 1.365333-1.592889 1.820444-2.503111 1.251556-2.844444 0.682667-6.144-1.592889-8.533333-0.796444-0.796444-1.592889-1.365333-2.503111-1.820444-1.820444-0.796444-3.982222-0.796444-5.916444-0.113778-0.910222 0.341333-1.820444 0.910222-2.616889 1.706666-0.796444 0.796444-1.365333 1.592889-1.820445 2.503112-0.796444 1.820444-0.796444 3.982222-0.113777 5.916444 0.341333 0.910222 0.910222 1.820444 1.706666 2.616889 2.161778 2.389333 5.575111 2.958222 8.419556 1.934222zM514.275556 664.234667c3.072-2.958222 3.185778-7.964444 0.227555-11.036445-2.958222-3.072-7.964444-3.185778-11.036444-0.227555-3.072 2.958222-3.185778 7.964444-0.227556 11.036444 2.958222 3.072 7.964444 3.185778 11.036445 0.227556zM565.816889 722.147556c0.910222-0.341333 1.820444-0.910222 2.616889-1.706667 0.796444-0.796444 1.365333-1.592889 1.820444-2.503111 1.251556-2.844444 0.682667-6.144-1.592889-8.533334-0.796444-0.796444-1.592889-1.365333-2.503111-1.820444-1.820444-0.796444-3.982222-0.796444-5.916444-0.113778-0.910222 0.341333-1.820444 0.910222-2.616889 1.706667-0.796444 0.796444-1.365333 1.592889-1.820445 2.503111-0.796444 1.820444-0.796444 3.982222-0.113777 5.916444 0.341333 0.910222 0.910222 1.820444 1.706666 2.616889 2.161778 2.389333 5.575111 3.072 8.419556 1.934223zM516.551111 553.756444c1.251556-1.251556 2.048-2.730667 2.275556-4.323555 0.341333-2.048-0.113778-4.209778-1.479111-6.030222-0.227556-0.227556-0.341333-0.455111-0.568889-0.682667-0.910222-1.024-2.048-1.592889-3.299556-2.048-0.227556-0.113778-0.455111-0.113778-0.682667-0.227556-0.682667-0.113778-1.479111-0.227556-2.275555-0.113777-1.706667 0.113778-3.413333 0.796444-4.778667 2.161777-0.568889 0.568889-1.024 1.137778-1.479111 1.820445-0.227556 0.455111-0.455111 0.910222-0.568889 1.365333-0.113778 0.227556-0.113778 0.455111-0.227555 0.682667-0.568889 2.503111 0.113778 5.12 2.048 7.054222 0.568889 0.568889 1.137778 1.024 1.706666 1.365333l0.113778 0.113778c1.137778 0.568889 2.389333 0.910222 3.640889 1.024 1.934222 0 3.982222-0.682667 5.575111-2.161778zM456.135111 609.962667c1.479111-0.227556 2.958222-0.910222 4.096-2.048 1.365333-1.251556 2.161778-2.958222 2.389333-4.778667 0.227556-2.275556-0.455111-4.551111-2.161777-6.257778-1.820444-1.934222-4.551111-2.730667-6.940445-2.275555-0.455111 0.113778-1.024 0.227556-1.479111 0.455111l-1.365333 0.682666c-0.455111 0.227556-0.910222 0.568889-1.251556 1.024-0.568889 0.568889-1.024 1.137778-1.479111 1.820445-0.227556 0.455111-0.455111 0.910222-0.568889 1.365333-0.113778 0.227556-0.113778 0.455111-0.227555 0.682667-0.568889 2.503111 0.113778 5.12 2.048 7.054222 0.568889 0.568889 1.137778 1.024 1.706666 1.365333l0.113778 0.113778c1.592889 0.796444 3.413333 1.024 5.12 0.796445zM529.863111 497.664c3.072-2.958222 3.185778-7.964444 0.227556-11.036444-2.958222-3.072-7.964444-3.185778-11.036445-0.227556-3.072 2.958222-3.185778 7.964444-0.227555 11.036444 2.958222 3.072 7.964444 3.185778 11.036444 0.227556zM475.818667 441.344c3.072-2.958222 3.185778-7.964444 0.227555-11.036444-2.958222-3.072-7.964444-3.185778-11.036444-0.227556-3.072 2.958222-3.185778 7.964444-0.227556 11.036444 2.958222 3.072 7.850667 3.185778 11.036445 0.227556zM421.660444 385.024c3.072-2.958222 3.185778-7.964444 0.227556-11.036444-2.958222-3.072-7.964444-3.185778-11.036444-0.227556-3.072 2.958222-3.185778 7.964444-0.227556 11.036444 2.958222 3.072 7.964444 3.185778 11.036444 0.227556zM367.616 328.704c3.072-2.958222 3.185778-7.964444 0.227556-11.036444-2.958222-3.072-7.964444-3.185778-11.036445-0.227556-3.072 2.958222-3.185778 7.964444-0.227555 11.036444 2.958222 3.072 7.850667 3.185778 11.036444 0.227556zM587.320889 388.323556c3.072-2.958222 3.185778-7.964444 0.227555-11.036445-2.958222-3.072-7.964444-3.185778-11.036444-0.227555-3.072 2.958222-3.185778 7.964444-0.227556 11.036444 2.958222 3.185778 7.964444 3.299556 11.036445 0.227556zM642.503111 389.461333c3.072-2.958222 3.185778-7.964444 0.227556-11.036444-2.958222-3.072-7.964444-3.185778-11.036445-0.227556-3.072 2.958222-3.185778 7.964444-0.227555 11.036445 2.958222 3.185778 7.964444 3.185778 11.036444 0.227555zM588.458667 333.141333c3.072-2.958222 3.185778-7.964444 0.227555-11.036444-2.958222-3.072-7.964444-3.185778-11.036444-0.227556-3.072 2.958222-3.185778 7.964444-0.227556 11.036445 2.958222 3.072 7.850667 3.185778 11.036445 0.227555zM586.183111 443.619556c3.072-2.958222 3.185778-7.964444 0.227556-11.036445-2.958222-3.072-7.964444-3.185778-11.036445-0.227555-3.072 2.958222-3.185778 7.964444-0.227555 11.036444 2.958222 3.072 7.964444 3.185778 11.036444 0.227556zM532.138667 387.299556c3.072-2.958222 3.185778-7.964444 0.227555-11.036445-2.958222-3.072-7.964444-3.185778-11.036444-0.227555-3.072 2.958222-3.185778 7.964444-0.227556 11.036444 2.958222 3.072 7.850667 3.185778 11.036445 0.227556zM531.000889 442.481778c3.072-2.958222 3.185778-7.964444 0.227555-11.036445-2.958222-3.072-7.964444-3.185778-11.036444-0.227555-3.072 2.958222-3.185778 7.964444-0.227556 11.036444 2.958222 3.072 7.964444 3.185778 11.036445 0.227556zM581.745778 500.736c1.251556-0.341333 2.389333-0.910222 3.299555-1.934222l0.796445-0.796445c1.024-1.365333 1.592889-2.958222 1.592889-4.664889 0-1.251556-0.227556-2.503111-0.796445-3.640888 0-0.113778-0.113778-0.113778-0.113778-0.227556-0.113778-0.227556-0.227556-0.341333-0.341333-0.568889-0.227556-0.341333-0.568889-0.682667-0.796444-1.024-1.479111-1.592889-3.527111-2.389333-5.461334-2.389333-2.048 0-3.982222 0.682667-5.575111 2.161778-1.137778 1.137778-1.934222 2.503111-2.275555 3.982222-0.113778 0.455111-0.113778 1.024-0.227556 1.479111 0 1.024 0.113778 2.048 0.455111 2.958222l0.682667 1.365333c0.227556 0.455111 0.568889 0.910222 1.024 1.251556l0.682667 0.682667c2.048 1.479111 4.664889 1.934222 7.054222 1.365333zM534.300444 276.821333c3.072-2.958222 3.185778-7.964444 0.227556-11.036444-2.958222-3.072-7.964444-3.185778-11.036444-0.227556-3.072 2.958222-3.185778 7.964444-0.227556 11.036445 3.072 3.072 7.964444 3.185778 11.036444 0.227555zM480.256 220.501333c3.072-2.958222 3.185778-7.964444 0.227556-11.036444-2.958222-3.072-7.964444-3.185778-11.036445-0.227556-3.072 2.958222-3.185778 7.964444-0.227555 11.036445 2.958222 3.072 7.964444 3.185778 11.036444 0.227555zM477.980444 330.865778c3.072-2.958222 3.185778-7.964444 0.227556-11.036445-2.958222-3.072-7.964444-3.185778-11.036444-0.227555-3.072 2.958222-3.185778 7.964444-0.227556 11.036444 2.958222 3.185778 7.964444 3.299556 11.036444 0.227556zM423.936 274.545778c3.072-2.958222 3.185778-7.964444 0.227556-11.036445-2.958222-3.072-7.964444-3.185778-11.036445-0.227555-3.072 2.958222-3.185778 7.964444-0.227555 11.036444 2.958222 3.185778 7.850667 3.299556 11.036444 0.227556zM533.276444 332.003556c2.275556-2.275556 2.958222-5.575111 1.934223-8.419556-0.341333-0.910222-0.910222-1.820444-1.706667-2.616889l-0.568889-0.568889c-0.796444-0.682667-1.706667-1.137778-2.730667-1.479111-0.682667-0.227556-1.479111-0.341333-2.161777-0.341333-2.048 0-3.982222 0.682667-5.575111 2.161778-1.592889 1.479111-2.389333 3.527111-2.389334 5.461333 0 0.455111 0 1.024 0.113778 1.479111 0.227556 1.479111 0.910222 2.958222 2.048 4.096 0.796444 0.796444 1.592889 1.365333 2.503111 1.820444 2.730667 1.137778 6.144 0.682667 8.533333-1.592888zM476.842667 386.161778c2.389333-2.275556 2.958222-5.575111 1.934222-8.419556-0.341333-0.910222-0.910222-1.820444-1.706667-2.616889-1.137778-1.137778-2.503111-1.934222-3.982222-2.275555-0.455111-0.113778-1.024-0.113778-1.479111-0.227556-2.048 0-3.982222 0.682667-5.575111 2.161778-1.592889 1.479111-2.389333 3.527111-2.389334 5.461333 0 0.455111 0 1.024 0.113778 1.479111 0.227556 1.479111 0.910222 2.958222 2.048 4.096 0.796444 0.796444 1.592889 1.365333 2.503111 1.820445 2.844444 1.251556 6.257778 0.682667 8.533334-1.479111zM425.073778 219.363556c2.275556-2.275556 2.958222-5.575111 1.934222-8.419556-0.341333-0.910222-0.910222-1.820444-1.706667-2.616889-0.796444-0.796444-1.592889-1.365333-2.503111-1.820444-0.910222-0.455111-1.934222-0.568889-2.958222-0.682667-2.048 0-3.982222 0.682667-5.575111 2.161778-1.365333 1.251556-2.161778 2.958222-2.389333 4.778666v0.796445c0 1.024 0.113778 2.048 0.455111 2.958222 0.341333 0.910222 0.910222 1.820444 1.706666 2.616889 0.796444 0.796444 1.592889 1.365333 2.503111 1.820444 2.844444 1.137778 6.144 0.682667 8.533334-1.592888zM368.753778 273.521778c2.389333-2.275556 2.958222-5.575111 1.934222-8.419556-0.341333-0.910222-0.910222-1.820444-1.706667-2.616889-0.796444-0.796444-1.592889-1.365333-2.503111-1.820444-0.910222-0.455111-1.934222-0.568889-2.958222-0.682667-2.048 0-3.982222 0.682667-5.575111 2.161778-1.251556 1.137778-1.934222 2.616889-2.275556 4.096-0.113778 0.455111-0.113778 0.910222-0.113777 1.365333 0 1.024 0.113778 2.048 0.455111 2.958223 0.341333 0.910222 0.910222 1.820444 1.706666 2.616888 0.796444 0.796444 1.592889 1.365333 2.503111 1.820445 2.730667 1.251556 6.144 0.682667 8.533334-1.479111zM699.960889 280.120889c3.072-2.958222 3.185778-7.964444 0.227555-11.036445-2.958222-3.072-7.964444-3.185778-11.036444-0.227555-3.072 2.958222-3.185778 7.964444-0.227556 11.036444 2.958222 3.185778 7.964444 3.299556 11.036445 0.227556zM755.143111 281.258667c3.072-2.958222 3.185778-7.964444 0.227556-11.036445-2.958222-3.072-7.964444-3.185778-11.036445-0.227555-3.072 2.958222-3.185778 7.964444-0.227555 11.036444 3.072 3.185778 7.964444 3.185778 11.036444 0.227556zM698.823111 335.416889c3.072-2.958222 3.185778-7.964444 0.227556-11.036445-2.958222-3.072-7.964444-3.185778-11.036445-0.227555-3.072 2.958222-3.185778 7.964444-0.227555 11.036444 3.072 3.072 7.964444 3.185778 11.036444 0.227556zM644.778667 279.096889c3.072-2.958222 3.185778-7.964444 0.227555-11.036445-2.958222-3.072-7.964444-3.185778-11.036444-0.227555-3.072 2.958222-3.185778 7.964444-0.227556 11.036444 2.958222 3.072 7.850667 3.185778 11.036445 0.227556zM643.640889 334.279111c3.072-2.958222 3.185778-7.964444 0.227555-11.036444-2.958222-3.072-7.964444-3.185778-11.036444-0.227556-3.072 2.958222-3.185778 7.964444-0.227556 11.036445 2.958222 3.072 7.964444 3.185778 11.036445 0.227555zM591.758222 167.480889c3.072-2.958222 3.185778-7.964444 0.227556-11.036445-2.958222-3.072-7.964444-3.185778-11.036445-0.227555-3.072 2.958222-3.185778 7.964444-0.227555 11.036444 2.958222 3.185778 7.964444 3.299556 11.036444 0.227556zM647.054222 168.618667c3.072-2.958222 3.185778-7.964444 0.227556-11.036445-2.958222-3.072-7.964444-3.185778-11.036445-0.227555-3.072 2.958222-3.185778 7.964444-0.227555 11.036444 2.958222 3.185778 7.850667 3.185778 11.036444 0.227556zM536.576 166.343111c3.072-2.958222 3.185778-7.964444 0.227556-11.036444-2.958222-3.072-7.964444-3.185778-11.036445-0.227556-3.072 2.958222-3.185778 7.964444-0.227555 11.036445 2.958222 3.185778 7.964444 3.299556 11.036444 0.227555zM589.596444 277.959111c2.389333-2.275556 2.958222-5.575111 1.934223-8.419555-0.341333-0.910222-0.910222-1.820444-1.706667-2.616889-0.910222-1.024-2.048-1.592889-3.299556-2.048-0.682667-0.227556-1.479111-0.341333-2.161777-0.341334-2.048 0-3.982222 0.682667-5.575111 2.161778-1.592889 1.479111-2.389333 3.527111-2.389334 5.461333 0 0.455111 0 1.024 0.113778 1.479112 0.227556 1.479111 0.910222 2.958222 2.048 4.096 0.796444 0.796444 1.592889 1.365333 2.503111 1.820444 2.844444 1.137778 6.144 0.682667 8.533333-1.592889zM481.393778 165.319111c2.389333-2.275556 2.958222-5.575111 1.934222-8.419555-0.341333-0.910222-0.910222-1.820444-1.706667-2.616889-0.796444-0.796444-1.592889-1.365333-2.503111-1.820445-0.910222-0.455111-1.934222-0.568889-2.958222-0.682666-2.048 0-3.982222 0.682667-5.575111 2.161777-1.592889 1.479111-2.389333 3.527111-2.389333 5.461334 0 1.024 0.113778 2.048 0.455111 2.958222 0.341333 0.910222 0.910222 1.820444 1.706666 2.616889 0.796444 0.796444 1.592889 1.365333 2.503111 1.820444 2.844444 1.251556 6.144 0.682667 8.533334-1.479111zM812.600889 171.918222c3.072-2.958222 3.185778-7.964444 0.227555-11.036444-2.958222-3.072-7.964444-3.185778-11.036444-0.227556-3.072 2.958222-3.185778 7.964444-0.227556 11.036445 3.072 3.185778 7.964444 3.299556 11.036445 0.227555zM757.418667 170.894222c3.072-2.958222 3.185778-7.964444 0.227555-11.036444-2.958222-3.072-7.964444-3.185778-11.036444-0.227556-3.072 2.958222-3.185778 7.964444-0.227556 11.036445 2.958222 3.072 7.964444 3.185778 11.036445 0.227555zM702.236444 169.756444c0.341333-0.227556 0.568889-0.568889 0.796445-0.910222 1.706667-2.161778 2.048-5.006222 1.137778-7.509333-0.341333-0.910222-0.910222-1.820444-1.706667-2.616889-0.910222-1.024-2.048-1.592889-3.299556-2.048-0.682667-0.227556-1.479111-0.341333-2.161777-0.341333-2.048 0-3.982222 0.682667-5.575111 2.161777-1.592889 1.479111-2.389333 3.527111-2.389334 5.461334 0 0.455111 0 1.024 0.113778 1.479111 0.227556 1.479111 0.910222 2.958222 2.048 4.096 0.796444 0.796444 1.592889 1.365333 2.503111 1.820444 2.844444 1.137778 6.144 0.682667 8.533333-1.592889zM736.597333 656.497778c-3.072 2.958222-3.185778 7.964444-0.227555 11.036444 2.958222 3.072 7.964444 3.185778 11.036444 0.227556 3.072-2.958222 3.185778-7.964444 0.227556-11.036445-3.072-3.072-7.964444-3.185778-11.036445-0.227555zM692.110222 666.624c3.072-2.958222 3.185778-7.964444 0.227556-11.036444-2.958222-3.072-7.964444-3.185778-11.036445-0.227556-3.072 2.958222-3.185778 7.964444-0.227555 11.036444 3.072 3.185778 7.964444 3.299556 11.036444 0.227556zM638.065778 610.304c3.072-2.958222 3.185778-7.964444 0.227555-11.036444-2.958222-3.072-7.964444-3.185778-11.036444-0.227556-3.072 2.958222-3.185778 7.964444-0.227556 11.036444 2.958222 3.185778 7.964444 3.185778 11.036445 0.227556zM584.021333 553.984c3.072-2.958222 3.185778-7.964444 0.227556-11.036444-2.958222-3.072-7.964444-3.185778-11.036445-0.227556-3.072 2.958222-3.185778 7.964444-0.227555 11.036444 2.958222 3.185778 7.850667 3.185778 11.036444 0.227556zM849.237333 548.295111c-3.072 2.958222-3.185778 7.964444-0.227555 11.036445 2.958222 3.072 7.964444 3.185778 11.036444 0.227555 3.072-2.958222 3.185778-7.964444 0.227556-11.036444-2.958222-3.072-7.964444-3.185778-11.036445-0.227556zM792.917333 602.453333c-3.072 2.958222-3.185778 7.964444-0.227555 11.036445 2.958222 3.072 7.964444 3.185778 11.036444 0.227555 3.072-2.958222 3.185778-7.964444 0.227556-11.036444-2.958222-3.185778-7.964444-3.299556-11.036445-0.227556zM804.864 558.421333c3.072-2.958222 3.185778-7.964444 0.227556-11.036444-2.958222-3.072-7.964444-3.185778-11.036445-0.227556-3.072 2.958222-3.185778 7.964444-0.227555 11.036445 2.958222 3.185778 7.850667 3.299556 11.036444 0.227555zM748.544 612.579556c3.072-2.958222 3.185778-7.964444 0.227556-11.036445-2.958222-3.072-7.964444-3.185778-11.036445-0.227555-3.072 2.958222-3.185778 7.964444-0.227555 11.036444 2.958222 3.072 7.850667 3.185778 11.036444 0.227556zM695.523556 500.963556c3.072-2.958222 3.185778-7.964444 0.227555-11.036445-2.958222-3.072-7.964444-3.185778-11.036444-0.227555-3.072 2.958222-3.185778 7.964444-0.227556 11.036444 2.958222 3.185778 7.964444 3.299556 11.036445 0.227556zM750.705778 502.101333c3.072-2.958222 3.185778-7.964444 0.227555-11.036444-2.958222-3.072-7.964444-3.185778-11.036444-0.227556-3.072 2.958222-3.185778 7.964444-0.227556 11.036445 2.958222 3.185778 7.964444 3.299556 11.036445 0.227555zM696.661333 445.781333c3.072-2.958222 3.185778-7.964444 0.227556-11.036444-2.958222-3.072-7.964444-3.185778-11.036445-0.227556-3.072 2.958222-3.185778 7.964444-0.227555 11.036445 2.958222 3.185778 7.850667 3.185778 11.036444 0.227555zM694.385778 556.259556c3.072-2.958222 3.185778-7.964444 0.227555-11.036445-2.958222-3.072-7.964444-3.185778-11.036444-0.227555-3.072 2.958222-3.185778 7.964444-0.227556 11.036444 2.958222 3.072 7.964444 3.185778 11.036445 0.227556zM640.341333 499.939556c3.072-2.958222 3.185778-7.964444 0.227556-11.036445-2.958222-3.072-7.964444-3.185778-11.036445-0.227555-3.072 2.958222-3.185778 7.964444-0.227555 11.036444 2.958222 3.072 7.850667 3.185778 11.036444 0.227556zM746.951111 558.990222c0.910222-0.341333 1.820444-0.910222 2.616889-1.706666 0.796444-0.796444 1.365333-1.592889 1.820444-2.503112 1.251556-2.844444 0.682667-6.144-1.592888-8.533333-0.796444-0.796444-1.592889-1.365333-2.503112-1.820444-1.820444-0.796444-3.982222-0.796444-5.916444-0.113778-0.910222 0.341333-1.820444 0.910222-2.616889 1.706667-0.796444 0.796444-1.365333 1.592889-1.820444 2.503111-0.796444 1.820444-0.796444 3.982222-0.113778 5.916444 0.341333 0.910222 0.910222 1.820444 1.706667 2.616889 2.275556 2.389333 5.575111 3.072 8.419555 1.934222zM639.203556 555.121778c3.072-2.958222 3.185778-7.964444 0.227555-11.036445-2.958222-3.072-7.964444-3.185778-11.036444-0.227555-3.072 2.958222-3.185778 7.964444-0.227556 11.036444 2.958222 3.072 7.850667 3.185778 11.036445 0.227556zM690.631111 613.148444c0.910222-0.341333 1.820444-0.910222 2.616889-1.706666 0.796444-0.796444 1.365333-1.592889 1.820444-2.503111 1.251556-2.844444 0.682667-6.144-1.592888-8.533334-0.796444-0.796444-1.592889-1.365333-2.503112-1.820444-1.820444-0.796444-3.982222-0.796444-5.916444-0.113778-0.910222 0.341333-1.820444 0.910222-2.616889 1.706667-0.796444 0.796444-1.365333 1.592889-1.820444 2.503111-0.796444 1.820444-0.796444 3.982222-0.113778 5.916444 0.341333 0.910222 0.910222 1.820444 1.706667 2.616889 2.275556 2.389333 5.575111 2.958222 8.419555 1.934222zM638.065778 446.577778c0.113778 0 0.341333-0.113778 0.455111-0.113778 0.113778 0 0.113778 0 0.227555-0.113778 0.910222-0.341333 1.820444-0.910222 2.616889-1.706666 1.479111-1.479111 2.275556-3.299556 2.389334-5.233778v-0.455111c0-1.934222-0.796444-3.868444-2.161778-5.347556-1.251556-1.365333-2.958222-2.161778-4.778667-2.389333h-0.796444c-2.048 0-3.982222 0.682667-5.575111 2.161778-1.137778 1.137778-1.934222 2.503111-2.275556 3.982222-0.113778 0.455111-0.113778 1.024-0.227555 1.479111 0 1.024 0.113778 2.048 0.455111 2.958222 0.341333 0.910222 0.910222 1.820444 1.706666 2.616889 0.227556 0.227556 0.568889 0.455111 0.796445 0.682667 2.275556 1.592889 4.778667 2.161778 7.168 1.479111zM861.184 504.376889c3.072-2.958222 3.185778-7.964444 0.227556-11.036445-2.958222-3.072-7.964444-3.185778-11.036445-0.227555-3.072 2.958222-3.185778 7.964444-0.227555 11.036444 2.958222 3.072 7.850667 3.185778 11.036444 0.227556zM808.163556 392.874667c3.072-2.958222 3.185778-7.964444 0.227555-11.036445-2.958222-3.072-7.964444-3.185778-11.036444-0.227555-3.072 2.958222-3.185778 7.964444-0.227556 11.036444 2.958222 3.072 7.964444 3.185778 11.036445 0.227556zM863.345778 393.898667c3.072-2.958222 3.185778-7.964444 0.227555-11.036445-2.958222-3.072-7.964444-3.185778-11.036444-0.227555-3.072 2.958222-3.185778 7.964444-0.227556 11.036444 2.958222 3.185778 7.964444 3.299556 11.036445 0.227556zM809.301333 337.578667c3.072-2.958222 3.185778-7.964444 0.227556-11.036445-2.958222-3.072-7.964444-3.185778-11.036445-0.227555-3.072 2.958222-3.185778 7.964444-0.227555 11.036444 2.958222 3.185778 7.850667 3.299556 11.036444 0.227556zM807.025778 448.056889c3.072-2.958222 3.185778-7.964444 0.227555-11.036445-2.958222-3.072-7.964444-3.185778-11.036444-0.227555-3.072 2.958222-3.185778 7.964444-0.227556 11.036444 2.958222 3.072 7.964444 3.185778 11.036445 0.227556zM752.981333 391.736889c3.072-2.958222 3.185778-7.964444 0.227556-11.036445-2.958222-3.072-7.964444-3.185778-11.036445-0.227555-3.072 2.958222-3.185778 7.964444-0.227555 11.036444 2.958222 3.072 7.850667 3.185778 11.036444 0.227556zM859.591111 450.787556c0.910222-0.341333 1.820444-0.910222 2.616889-1.706667 0.796444-0.796444 1.365333-1.592889 1.820444-2.503111 1.251556-2.844444 0.682667-6.144-1.592888-8.533334-0.796444-0.796444-1.592889-1.365333-2.503112-1.820444-1.820444-0.796444-3.982222-0.796444-5.916444-0.113778-0.910222 0.341333-1.820444 0.910222-2.616889 1.706667-0.796444 0.796444-1.365333 1.592889-1.820444 2.503111-0.796444 1.820444-0.796444 3.982222-0.113778 5.916444 0.341333 0.910222 0.910222 1.820444 1.706667 2.616889 2.275556 2.389333 5.575111 3.072 8.419555 1.934223zM751.843556 446.919111c3.072-2.958222 3.185778-7.964444 0.227555-11.036444-2.958222-3.072-7.964444-3.185778-11.036444-0.227556-3.072 2.958222-3.185778 7.964444-0.227556 11.036445 2.958222 3.072 7.964444 3.185778 11.036445 0.227555zM803.271111 504.945778c0.910222-0.341333 1.820444-0.910222 2.616889-1.706667 0.796444-0.796444 1.365333-1.592889 1.820444-2.503111 1.251556-2.844444 0.682667-6.144-1.592888-8.533333-0.796444-0.796444-1.592889-1.365333-2.503112-1.820445-1.820444-0.796444-3.982222-0.796444-5.916444-0.113778-0.910222 0.341333-1.820444 0.910222-2.616889 1.706667-0.796444 0.796444-1.365333 1.592889-1.820444 2.503111-0.796444 1.820444-0.796444 3.982222-0.113778 5.916445 0.341333 0.910222 0.910222 1.820444 1.706667 2.616889 2.275556 2.389333 5.575111 2.958222 8.419555 1.934222zM750.250667 338.488889c1.365333-0.227556 2.730667-0.910222 3.868444-2.048l0.568889-0.568889c1.137778-1.365333 1.706667-2.958222 1.820444-4.664889 0.113778-1.820444-0.455111-3.527111-1.592888-5.12-0.227556-0.227556-0.341333-0.455111-0.568889-0.682667-0.910222-1.024-2.048-1.592889-3.299556-2.048-0.227556-0.113778-0.455111-0.113778-0.682667-0.227555-0.682667-0.113778-1.479111-0.227556-2.275555-0.113778-1.706667 0.113778-3.413333 0.796444-4.778667 2.161778-0.796444 0.796444-1.365333 1.592889-1.820444 2.503111-0.455111 1.137778-0.682667 2.389333-0.568889 3.640889 0 0.227556 0 0.455111 0.113778 0.796444 0.227556 1.479111 0.910222 2.958222 2.048 4.096 0.227556 0.227556 0.568889 0.455111 0.796444 0.682667 1.820444 1.592889 4.096 2.048 6.371556 1.592889zM694.385778 392.533333c1.251556-0.341333 2.389333-0.910222 3.299555-1.934222 1.365333-1.251556 2.161778-2.958222 2.389334-4.664889 0-0.227556 0-0.568889 0.113777-0.796444 0-0.682667-0.113778-1.365333-0.227555-2.048 0-0.227556-0.113778-0.455111-0.227556-0.568889 0-0.113778-0.113778-0.227556-0.113777-0.341333-0.113778-0.341333-0.341333-0.682667-0.455112-0.910223-0.113778-0.113778-0.227556-0.341333-0.341333-0.455111-0.227556-0.341333-0.568889-0.682667-0.796444-1.024-0.796444-0.796444-1.592889-1.365333-2.503111-1.820444-2.844444-1.251556-6.144-0.682667-8.533334 1.592889-0.568889 0.568889-1.024 1.137778-1.479111 1.820444-0.227556 0.455111-0.455111 0.910222-0.568889 1.365333-0.113778 0.227556-0.113778 0.455111-0.227555 0.682667-0.568889 2.503111 0.113778 5.12 2.048 7.054222 0.227556 0.227556 0.568889 0.455111 0.796444 0.682667 1.934222 1.479111 4.551111 1.934222 6.826667 1.365333zM865.621333 283.534222c3.072-2.958222 3.185778-7.964444 0.227556-11.036444-2.958222-3.072-7.964444-3.185778-11.036445-0.227556-3.072 2.958222-3.185778 7.964444-0.227555 11.036445 2.958222 3.072 7.964444 3.185778 11.036444 0.227555zM864.483556 338.716444c3.072-2.958222 3.185778-7.964444 0.227555-11.036444-2.958222-3.072-7.964444-3.185778-11.036444-0.227556-3.072 2.958222-3.185778 7.964444-0.227556 11.036445 2.958222 3.072 7.964444 3.185778 11.036445 0.227555zM866.759111 228.352c1.251556-1.251556 2.048-2.730667 2.275556-4.323556 0.341333-2.048-0.113778-4.209778-1.479111-6.030222-0.227556-0.227556-0.341333-0.455111-0.568889-0.682666-0.910222-1.024-2.048-1.592889-3.299556-2.048-0.227556-0.113778-0.455111-0.113778-0.682667-0.227556-0.682667-0.113778-1.479111-0.227556-2.275555-0.113778-1.706667 0.113778-3.413333 0.796444-4.778667 2.161778-0.568889 0.568889-1.024 1.137778-1.479111 1.820444-0.227556 0.455111-0.455111 0.910222-0.568889 1.365334-0.113778 0.227556-0.113778 0.455111-0.227555 0.682666-0.568889 2.503111 0.113778 5.12 2.048 7.054223 0.568889 0.568889 1.137778 1.024 1.706666 1.365333l0.113778 0.113778c1.137778 0.568889 2.389333 0.910222 3.640889 1.024 1.934222 0 3.982222-0.682667 5.575111-2.161778zM806.343111 284.444444c1.479111-0.227556 2.958222-0.910222 4.096-2.048 1.365333-1.251556 2.161778-2.958222 2.389333-4.778666 0.227556-2.275556-0.455111-4.551111-2.161777-6.257778-1.820444-1.934222-4.551111-2.730667-6.940445-2.275556-0.455111 0.113778-1.024 0.227556-1.479111 0.455112l-1.365333 0.682666c-0.455111 0.227556-0.910222 0.568889-1.251556 1.024-0.568889 0.568889-1.024 1.137778-1.479111 1.820445-0.227556 0.455111-0.455111 0.910222-0.568889 1.365333-0.113778 0.227556-0.113778 0.455111-0.227555 0.682667-0.568889 2.503111 0.113778 5.12 2.048 7.054222 0.568889 0.568889 1.137778 1.024 1.706666 1.365333l0.113778 0.113778c1.592889 0.796444 3.413333 1.137778 5.12 0.796444z" fill="#231B3B" p-id="5232"></path><path d="M542.037333 297.415111c-44.600889 44.600889-44.600889 117.304889 0 162.019556 21.845333 21.845333 50.744889 33.564444 80.782223 33.564444 8.647111 0 17.408-1.024 26.055111-2.958222 20.935111-4.778667 39.936-15.473778 55.182222-30.606222 15.587556-15.587556 26.168889-35.043556 30.833778-56.433778 8.419556-38.343111-3.185778-77.824-30.947556-105.472-44.487111-44.828444-117.304889-44.828444-161.905778-0.113778zM673.564444 389.461333c-2.161778 9.557333-6.940444 18.432-13.994666 25.486223-6.826667 6.826667-15.473778 11.605333-24.803556 13.767111-17.635556 4.096-35.612444-1.137778-48.241778-13.767111-20.138667-20.138667-20.138667-52.906667 0-73.045334 10.126222-10.126222 23.324444-15.132444 36.522667-15.132444s26.510222 5.006222 36.522667 15.132444c12.515556 12.401778 17.749333 30.264889 13.994666 47.559111z m0 0" fill="#592B0C" p-id="5233"></path><path d="M894.065778 432.355556l-15.928889-213.560889c-3.754667-51.2-45.283556-92.615111-96.597333-96.369778l-212.764445-15.246222c-38.570667-2.730667-76.913778 11.377778-104.334222 38.912l-340.195556 340.081777c-52.224 52.224-52.224 137.329778 0 189.553778l201.386667 201.386667c25.258667 25.372444 58.936889 39.253333 94.776889 39.253333s69.518222-13.880889 94.776889-39.253333l339.968-339.968c27.648-27.648 41.870222-65.763556 38.912-104.789333z m-83.285334 60.302222L470.698667 832.625778c-27.761778 27.761778-72.931556 27.761778-100.693334 0l-201.386666-201.386667c-27.761778-27.761778-27.761778-72.931556 0-100.693333l340.195555-340.081778c13.312-13.425778 31.402667-20.821333 50.289778-20.821333 1.706667 0 3.413333 0.113778 5.12 0.227555L777.102222 185.230222c20.366222 1.479111 36.864 17.863111 38.343111 38.229334l15.928889 213.560888c1.592889 20.707556-5.916444 40.96-20.593778 55.637334z m0 0" fill="#592B0C" p-id="5234"></path></svg>